<svg id="圖層_1" data-name="圖層 1" xmlns="http://www.w3.org/2000/svg" viewBox="0 0 486.37 199.82"><defs><style>.cls-1,.cls-3{fill:#fff;}.cls-2{fill:none;}.cls-2,.cls-3{stroke:#fff;stroke-miterlimit:10;stroke-width:0.25px;}</style></defs><title>標題-2</title><path class="cls-1" d="M518,348.9q.91,0,2.9,2.45a11.47,11.47,0,0,1,1.81,6,13.82,13.82,0,0,1-2.09,7.07q-1.18,1.9-2.27,1.9-1.36,0-3.17-2.18a3.24,3.24,0,0,1-.82-4.81q3-6.8,3.35-9.61C517.78,349.17,517.87,348.9,518,348.9Zm11.24-22.39q1.27,0,3.54,1.9a7.23,7.23,0,0,1,2.27,5.35,18.81,18.81,0,0,1-.91,5.8,36.64,36.64,0,0,0-1.09,5.26q.82.09,1.9.27,5.17,1.09,7.43,2.81t2.45,3.17a3.73,3.73,0,0,1-1.36,3.08h.18q5.62,0,16.23-3.81-.73-.54-1.9-3.54a14.59,14.59,0,0,1-.82-4.81,3.85,3.85,0,0,1-.72.09,5.57,5.57,0,0,1-3-.91q-1.27-.91-1.36-1.36,0-.91,2-1.18a37.19,37.19,0,0,0,9-3.35,19.84,19.84,0,0,1,10.06-2.36q2.9,0,2.9,1.81,0,2.9-4.53,4.62,1.54.91,1.63,2a6,6,0,0,1-1.9,3.9,13.72,13.72,0,0,1-2.27,2,62,62,0,0,1,15.41-2.72q6.16.09,6.16,4.35-.09,2.18-2.54,2.18a103.53,103.53,0,0,0-28.11,3.72A58.91,58.91,0,0,1,547.79,357a6.69,6.69,0,0,1-3.72-1q-1.54-.54-1.72-1.27v-.09a3,3,0,0,1-.73.09q-1.9,0-3.54-2.36a23.93,23.93,0,0,0-5.35-5.44,98.29,98.29,0,0,0-.54,10.79q-.36,18-.36,31.82,0,8.61-3.26,8.7-2.9-.09-2.9-6.07,0-4,2-18.59,1-9.16,1.36-15.05a66.57,66.57,0,0,1,.36-12q.63-8.34.63-11.06a15.39,15.39,0,0,0-1-5.08,16.52,16.52,0,0,1-.82-2.54Q528.2,326.51,529.29,326.51Zm18.5,52.86q.73,0,2.18,1.81a7.81,7.81,0,0,1,1.45,4.35,15.86,15.86,0,0,1-2.63,8.34q-1.36,2.27-2.81,2.27-1.09,0-2.36-1.72a3.25,3.25,0,0,1-1.27-2.27,3.4,3.4,0,0,1,1-2q3.72-7.07,4.17-10Q547.51,379.37,547.79,379.37ZM551.05,361q.27,0,.72.73a26.7,26.7,0,0,0,2.9,5.35,2.63,2.63,0,0,0,.63-.09,23.67,23.67,0,0,0,5.62-2.27,12,12,0,0,1,6.44-1.63q1.81,0,1.81,1.09,0,2.45-4.35,3.72a40,40,0,0,1-8,1.45,3.35,3.35,0,0,1-.82-.09,7.13,7.13,0,0,1,1.09,2.81q2.08-.45,5.08-1.36a21.63,21.63,0,0,1,7.34-1.09,1.73,1.73,0,0,1,.54.09,11.79,11.79,0,0,0,3.9-9.16q-.27-1.09-2.63-1.09a33.13,33.13,0,0,0-6.26,1.36,12.94,12.94,0,0,1-3.54.82q-2.54,0-2.9-1.45c.12-.3.54-.51,1.27-.63a18.29,18.29,0,0,0,3.35-1.63q6.07-3,8.07-3.17,8.79,0,9.07,5.8a20.73,20.73,0,0,1-1.63,7.43A19,19,0,0,1,574,374a7.11,7.11,0,0,1-4.44,1.72q-2.54-.27-3.08-2.27a87.23,87.23,0,0,1-8.88.82H557q-.36,2.45-1.63,2.63-2,0-3.45-2.63a20.37,20.37,0,0,1-2-9.34Q550,361,551.05,361Zm5.44,18.41q2.18.09,5,3.54,8.07,9.61,14.33,9.61A9.55,9.55,0,0,0,581,391a1.77,1.77,0,0,0,1.27-1.81q0-1.72-5.44-7.25l-.36.36a2.93,2.93,0,0,1-2.18,1.09,9.89,9.89,0,0,1-3.9-.63q-1.9-.73-1.9-1.81c0-.48.52-1.22.76-1.22,1.75-.18,4.53.85,5.74,0,1.69-1.21,5.14-1.87,8-2.3,3.75-.66,3.14-2.34,3.86-2.65a4.36,4.36,0,0,1,1.54-.27,11.59,11.59,0,0,1,6.17,1.72q3.26,1.9,3.26,4.35T595.66,383q-.64,0-1.63-1.09a13.77,13.77,0,0,0-3.81-1.72c-1.81-.66-4.14-1.64-6.07-1.64-1.75,0-2.06.48-3.45,1.15-.42.18-1.64.86-2,1q1.18.27,2.54.73a14.81,14.81,0,0,1,5.62,4.44q2.63,3.35,2.63,5.35,0,1.81-2.81,3.45a25.6,25.6,0,0,1-12.24,2.81q-4.17,0-8.07-3.72-5.26-4.62-10.25-14.05A.32.32,0,0,1,556.49,379.37ZM560.75,350a10.59,10.59,0,0,0,1.27-.45q.82-.27,1.45-.45l-.09-.18a20.38,20.38,0,0,0,3.81-4.44,10.45,10.45,0,0,0,1.63-3.08,1.57,1.57,0,0,0-.54-1.09q-5,1.09-8.16,1.45a14,14,0,0,1,1.09,5.71A4.52,4.52,0,0,1,560.75,350Zm1.63-30.1a46.62,46.62,0,0,0,7.71,4q4.53,2.09,4.53,5.89,0,1.18-2,2a15.91,15.91,0,0,1-4.17.45q-2.18,0-2.18-1.09a9.18,9.18,0,0,0,.36-1.36q0-1.09-2.54-2.45-3.63-2.27-3.63-4.17Q560.48,319.89,562.38,319.89Z" transform="translate(-355.61 -216.67)"/><path class="cls-1" d="M491.13,258.77q.82,0,2.54,2.09a9.08,9.08,0,0,1,1.45,4.81,26.87,26.87,0,0,1-4.9,14.87q-2.54,4-5.26,4-1.18,0-2.63-1.81a3.57,3.57,0,0,1-1.36-2.54q0-1.18,1.81-3.26,7-11.78,7.8-16.77Q490.58,258.77,491.13,258.77Zm10.52-5.71q10.88,19.68,16.59,24.75a19.28,19.28,0,0,0,13.51,5.71,25.91,25.91,0,0,0,10.7-2.36q2.72-1.18,2.72-4.62,0-4.35-6.53-20.22v-.45q19.22,19.95,19.22,26.84a7.58,7.58,0,0,1-4.53,7.25q-4.81,2.9-16.86,2.9-14.33,0-22.58-8.89-6.62-7.34-12.51-29.92Q501.37,253.06,501.65,253.06Zm17.77-3.72q2.72,2.54,5.17,2.54a13.08,13.08,0,0,0,6.17-1.63q10.88-6,15.14-6A31,31,0,0,1,557.13,246q3.63,1.27,3.63,3.35,0,3.08-2.09,3.9a24.29,24.29,0,0,1-8.43,1.18q-5.44-.09-5.44-1.09,3.26-2.27,3.26-3.26a1.92,1.92,0,0,0-2.18-2.18,12.43,12.43,0,0,0-5.8,1.36q-2.9,1.36-10.79,8.07a7.72,7.72,0,0,1-4.71,1.81,5.17,5.17,0,0,1-4.08-1.63,12.25,12.25,0,0,1-1.81-7.07Q518.69,249.34,519.42,249.34Z" transform="translate(-355.61 -216.67)"/><path class="cls-1" d="M636.26,241.18c2.55.77,4,1,4,3,0,2.78-4,4.33-10.15,5.72-.36.06-3.14.65-3.45.71q-.73,6.26-1.09,10.79c1.19-.49,7.56-1,11.09-1.54a7.62,7.62,0,0,0,2.07-.61,11.65,11.65,0,0,1,4-1.31,9.63,9.63,0,0,1,3.75.83q2.08,1.18,2.09,2.72,0,2-1.54,2.27c-4.9,1-17.5,2.3-21.73,3.81q-.09,1-.09,1.81l-.09,1.9,1.81,1a67,67,0,0,1,11.61,7.43,40.49,40.49,0,0,0,15.14,7.34q5.35,1.36,7.43,3,1.81,1.45,1.81,2.45-.36,3-6.17,3a22.39,22.39,0,0,1-9.34-1.81q-4.17-2.08-12.24-10.06-5.8-5.89-10.15-9.52l-.54,27.29a33.42,33.42,0,0,1-.73,6.89q-.82,3.17-2.18,3.26-2.09-.09-3.45-2.9a12.43,12.43,0,0,1-1.27-5.44,79,79,0,0,1,1-11.33q.82-5.44,1.45-17-8.89,12.88-18.86,19.67-4.81,3.26-7.16,3.26h-.36a95.15,95.15,0,0,0,15.69-16,117.28,117.28,0,0,0,7.25-10.43q-1.81.82-3.54,1.72-10.16,5.26-13.6,5.44a4.61,4.61,0,0,1-3.72-1.9,5.43,5.43,0,0,1-1.36-3.17q0-.91,1.63-1.18,7.34-1,24.48-8.25.18-5.71.36-12.24a67.06,67.06,0,0,1-9.43,1,8.39,8.39,0,0,1-4.35-1.18q-2-1.36-2.18-2.09,0-1.09,2.81-1.36A66.72,66.72,0,0,0,619,244.08a12.63,12.63,0,0,1,1.27-.63q.09-3,.18-6.26a16.71,16.71,0,0,0-1.18-5.44,23.83,23.83,0,0,1-1.36-4.35q0-1.81,1.45-1.81a12.12,12.12,0,0,1,6,2.09q2.9,2.45,3.08,7.34a29.65,29.65,0,0,1-.73,6,1.7,1.7,0,0,0-.09.54C632.39,240.71,634.68,240.71,636.26,241.18Z" transform="translate(-355.61 -216.67)"/><path class="cls-1" d="M710.62,259.32q1.9-.11,4,2.49a12.11,12.11,0,0,1,2.77,6.92,16.46,16.46,0,0,1-.82,4.5,78.77,78.77,0,0,0-1,20q.19,3.26,1.28,3.19.9-.05,1.62-1.82l5.24-17.12a.64.64,0,0,1,.77.68q-1.48,11.63-3.52,21.65-.92,4.41-1.45,9.26-.47,4.3-2.73,4.43-3.08.18-5.34-4.31-2.09-4.51-2.57-12.65a111.22,111.22,0,0,1,1-19.14,93.06,93.06,0,0,0,.71-12.49,36.74,36.74,0,0,0-.62-4.32C709.92,259.76,710.14,259.35,710.62,259.32Zm2.46-23.76A10.57,10.57,0,0,1,720,238.1a7.66,7.66,0,0,1,3.26,6.26q0,2.09-1.72,2.09-5.17,0-6.62.63a2.72,2.72,0,0,1-1.45.54v-.45a7.43,7.43,0,0,0,1.45-3.54,11.54,11.54,0,0,0-1.72-4.9,7.49,7.49,0,0,1-.82-2C712.36,236,712.6,235.56,713.08,235.56Zm50.23-2.18q5.44,0,5.44,5.08-.09,4.26-11,13.24a3.77,3.77,0,0,1,3,3.9q-.09,2.09-2.54,2.09a40.51,40.51,0,0,0-9.07,1,12.13,12.13,0,0,1,1.09,1.9q.45,1.18,1.09,2.63a5.91,5.91,0,0,1,.91-.54q6.44-3.08,8.52-3.08a8.25,8.25,0,0,1,3.9.91,3.4,3.4,0,0,1,1.9,2.72q0,1.45-1.09,1.72a109.1,109.1,0,0,0-11.79,2.9q4.71,9,14.51,24a20.59,20.59,0,0,0,4.17,4.35,6,6,0,0,0,2.9.63,2.49,2.49,0,0,0,1.9-.91,35.52,35.52,0,0,0,.91-6.71q0-1.09.45-1.09.82,0,1.54,2a30.16,30.16,0,0,1,1.72,10.25q0,3.63-1.36,5.26a3.33,3.33,0,0,1-3,1.36,9.25,9.25,0,0,1-5.26-1.72q-2.9-1.72-6.26-6.53-5.35-8.61-9.7-16.23A58.64,58.64,0,0,1,745,299.21q-6.8,6.62-10.34,6.8a3.61,3.61,0,0,1-2.45-1.9A9.47,9.47,0,0,1,731,299q0-5,1.27-17.32,1.27-8.52,1.27-32a5.54,5.54,0,0,0-.73-3.08,3.8,3.8,0,0,1-1.09-1.63q0-1,1.81-1a8.49,8.49,0,0,1,4,1,5.5,5.5,0,0,1,2.18,4.35q0,2.18-.36,8a30.2,30.2,0,0,0,5.26-2.63,22.79,22.79,0,0,1,3.17-1.63l12.6-11.7c0-.24-.21-.36-.63-.36q-12.06,2.18-16,2.18-4.44-.27-5.08-2.18,0-.63,2.36-1.18Q757.6,233.56,763.31,233.38ZM754.7,279.8q-3.08-5.62-5.62-10.7-4.81,1.45-10.7,3.54v.27Q737.2,289.5,737.2,295q0,.73,1.09.73A151.55,151.55,0,0,0,754.7,279.8Zm-7.53-14.6a42.25,42.25,0,0,0-2.81-5.08,13.27,13.27,0,0,1-3.17.45,10.12,10.12,0,0,1-2-.18q-.27,4-.63,9.34Q741.19,268.2,747.17,265.21Z" transform="translate(-355.61 -216.67)"/><path class="cls-1" d="M628.9,350.23l2.54.36q2.72,0,9.25-2.45.18-8.61.18-17.5,0-1.81,1.45-1.81a8.41,8.41,0,0,1,4.9,1.27,5.09,5.09,0,0,1,2,4.26,73.16,73.16,0,0,1-.91,9.88,10.68,10.68,0,0,1-.27,1.18,9.51,9.51,0,0,1,3-.63,1.58,1.58,0,0,1,1.81,1.45,6,6,0,0,1-4.35,6.07,16.37,16.37,0,0,1-2.72,1,44.8,44.8,0,0,1-2.27,5.17,6,6,0,0,1,1.72-.27,15.82,15.82,0,0,1,5.17.91,2.82,2.82,0,0,1,2.09,2.72q0,3.17-3.63,3.35a5.93,5.93,0,0,0-3.72,2.09,67.15,67.15,0,0,1-4,5.53h1.54a9.08,9.08,0,0,1,4.9,1.18,3.37,3.37,0,0,1,1.27,2.81,9.64,9.64,0,0,1-3.54,7.16Q641.05,388,630,392a.32.32,0,0,1-.36-.36Q643,381.88,643,377.8a.64.64,0,0,0-.73-.73,5.71,5.71,0,0,0-4.44,2.45q-2.81,3-4.62,3-2.54,0-2.54-3.26a6.13,6.13,0,0,1,2.09-4.71q2.45-2.36,4.35-4.44-7.16,4.9-10.06,5.17a10.83,10.83,0,0,1-5.35-1.36q-2.45-1.36-2.63-3.35a.64.64,0,0,1,.73-.73,21.49,21.49,0,0,0,3.63.36q3.63,0,11.06-6.35a31.07,31.07,0,0,1,5.8-4.17q.09-2.63.18-5.35a41.13,41.13,0,0,1-4.71.27,8.15,8.15,0,0,1-5.71-1.9q-1.18-1.09-1.18-1.72Zm9.43,41q4.44,0,19.31,5,18,6.35,29.56,6.62a34.2,34.2,0,0,1,11.06,1.9q4.26,1.63,4.26,2.9,0,1-2.81,1.81a33,33,0,0,1-9.16,1.45q-11.88,0-33-8.79-13.06-5.44-18.5-5.44a25.22,25.22,0,0,0-4.62.82,30.85,30.85,0,0,1-5.53.63,5.13,5.13,0,0,1-3.63-1.18q-1.82-1.72-1.81-2.81a48.8,48.8,0,0,0,7.71-1.45A26,26,0,0,1,638.33,391.21Zm41-54.76a9,9,0,0,1,4.9,1.36,4.21,4.21,0,0,1,2.36,3.45,1.88,1.88,0,0,1-1.45,2.09q-3.72.27-9.07.91a8.27,8.27,0,0,1,.73,3.08,18,18,0,0,1-.45,4.17,87.68,87.68,0,0,0-.82,13q.91,12,.91,21.13a57.63,57.63,0,0,0,6.8-10.34q-2.09-1.36-4.26-2.63-1.45-1-1.45-1.36v-.36a35.92,35.92,0,0,1,7.34,1.27q3.54-7.25,3.54-11.79a.64.64,0,0,0-.72-.73q-5.17,2.54-7.62,2.54-2.18-.09-2.18-1,0-.54.82-1.18,5.08-3,10-5.53a11.94,11.94,0,0,1,4.81-1.63,6.34,6.34,0,0,1,3,1.36,4.24,4.24,0,0,1,1.72,3q0,2.36-3.9,10.15-1.9,3.72-3.54,6.71a17.58,17.58,0,0,1,5.8,3.45q3.72,3.35,3.81,6.53-.18,2.63-2.54,2.81-3.45,0-6.35-3.72-1.72-2.08-3.81-4.17a39.94,39.94,0,0,1-5.26,6.26,16.19,16.19,0,0,1-6.07,3.63q-.45,4.54-2.45,4.53-2.54-.09-2.54-5.35,0-2.81.54-13,.09-2.45.18-4.62a1.39,1.39,0,0,0-.27.36,69.86,69.86,0,0,1-10.7,12.24q-3.63,3.45-4.62,3.45-2.63,0-2.9-5.08,0-1.63,1.09-1.81a6.14,6.14,0,0,0,3.26-1.18,3.75,3.75,0,0,1,.73-.54,4.83,4.83,0,0,1-.36-1.81,146.09,146.09,0,0,1,1.54-19.49q.72-4.53,1.36-4.53.45,0,.63,2.54,1.27,12.69,1.54,19.58,3.54-3,8.79-7.53V364a18.62,18.62,0,0,1-4.81-.73q-2.72-1.09-2.9-2.9,0-3.17.73-3.17a3.94,3.94,0,0,1,1,.18,27.75,27.75,0,0,0,5.35,2l.63.18q.09-1.54.09-3.17a7.11,7.11,0,0,1-3.72-2.09q-2.63-2.72-2.63-5.08,0-1.18,1.09-1.18a8.22,8.22,0,0,1,5.44,2.18v-1.45a12.72,12.72,0,0,0-.73-4L659,346.61a.32.32,0,0,1-.36-.36q0-.72,1.63-1.81,1.81-1.27,12.15-5.62Q677.68,336.45,679.31,336.45Z" transform="translate(-355.61 -216.67)"/><path class="cls-1" d="M406.75,217.85a26.66,26.66,0,0,1,6.26,7.43q1.45,2.63,3.17,2.63,3.08-.27,3.26-4a5.38,5.38,0,0,0-2.18-3.63,16.69,16.69,0,0,0-6.89-3,25.34,25.34,0,0,0-4.35-.63v.27Q406,217.3,406.75,217.85Z" transform="translate(-355.61 -216.67)"/><path class="cls-1" d="M397.14,235.77a14.45,14.45,0,0,0,7.07,1.9,25.35,25.35,0,0,0,8.89-2.45A77.89,77.89,0,0,1,433,231.87q3.62-.18,3.63-3.17-.09-1.81-2.45-2.72a15.13,15.13,0,0,0-4.81-1.36c-1.09.18-5,.91-7.19,2.18q-13,6.26-22.3,6.26a20.13,20.13,0,0,1-5.44-.82q-.36,0-.36.82Q394.05,234.23,397.14,235.77Z" transform="translate(-355.61 -216.67)"/><path class="cls-1" d="M403.21,277.75a3.38,3.38,0,0,0,2.81,1.72q1.09,0,1.09-3.63a22.11,22.11,0,0,0-1.72-7.16,7.86,7.86,0,0,0-4.08-4.44,10,10,0,0,0-2.9-.36c-.73,0-1.09.21-1.09.63a2.72,2.72,0,0,0,1,1.72,9.53,9.53,0,0,1,2.36,3.72Q401.94,276.12,403.21,277.75Z" transform="translate(-355.61 -216.67)"/><path class="cls-1" d="M443.92,291.07a11.58,11.58,0,0,0-6-1.63,43.2,43.2,0,0,0-6.53.54c-2.84.42-4.44.9-8.06,1.26a28.67,28.67,0,0,0,5.74-3.45c1.15-1.15,2.3-2.3,2.3-4.59,0-4.59-5.74-4.59-12.22-4.55l-.06-1.26a98.6,98.6,0,0,0,9.77-2.28q2.36-.91,2.72-2.27a49.94,49.94,0,0,0,2.63-7.43,11.55,11.55,0,0,1,1.09-2.72,2.73,2.73,0,0,0,.82-1.81q-.09-1.63-2.54-3.9-3-2.63-4.35-2.63c-.36,0-.94,0-1.72.09a38.87,38.87,0,0,1-4.81.73,127,127,0,0,0-14.05,3.26q-2.63.64-2.63,1.45.09,2.63,4.71,2.81a19.14,19.14,0,0,0,4.08-.82,18.32,18.32,0,0,1,.27,2.63v1.18a21.5,21.5,0,0,0-1.9,1.09q-4.44,2.81-6.71,2.81c-.3,0-.45.12-.45.36s.57.73,1.36,1.09a5.71,5.71,0,0,0,3,.82,13.67,13.67,0,0,0,4.08-1l.63-.18v2.72q-2,.73-4.44,1.72-1.72.73-1.72,1.36,0,1.81,3.26,1.81a21,21,0,0,0,3-.27v1.09a20.6,20.6,0,0,0-6.8,3.45q-5.26,4-5.26,7a4.72,4.72,0,0,0,.82,2.9,2.37,2.37,0,0,0,1.63,1.36q-15.05,3.26-19.86,3.45-1.09,0-1.09.27.09.54,2.36,1.36a16.71,16.71,0,0,0,6.35,1.18,38,38,0,0,0,8.25-.91,137.81,137.81,0,0,1,14.78-2.54,113.47,113.47,0,0,1,12.33-.63q5.08.09,10.52.45,3.72.27,6,.27,2.9,0,2.9-1.09Q448.09,293.52,443.92,291.07Zm-36.45,2.27a4.9,4.9,0,0,1-1,.27,1.06,1.06,0,0,0,.18-.73q.27-2.63,4.08-5a12.37,12.37,0,0,1,4.53-1.9q.09,4,.27,5.8Q411.91,292.43,407.47,293.34Zm17-23.39V270q-2,.64-5.17,1.81v-2.27a31.7,31.7,0,0,1,4.81-.36h.45A3,3,0,0,0,424.52,269.95Zm1.09-9.7q1.09,0,1.09,1.36a15.21,15.21,0,0,1-.45,2.36q-.18.73-.36,1.63-1.09-1.72-4.62-1.72a8,8,0,0,0-1.9.27,8.65,8.65,0,0,0-.63-3.17A47.5,47.5,0,0,1,425.61,260.25ZM419.9,285.5c8-1.15,5.74,0,0,3.45Z" transform="translate(-355.61 -216.67)"/><path class="cls-1" d="M448.91,246.47a11.39,11.39,0,0,0-5.44-1.45,40.65,40.65,0,0,0-8.52,1q-4,.73-8.79,1.36,8.16-5.89,8.16-8.61a5.88,5.88,0,0,0-1.63-3.81,5.21,5.21,0,0,0-3.45-1.54q-2.81.09-2.9,1.36,0,.64.91,1.27a2.84,2.84,0,0,1,.91,2.36q0,2.09-3.08,4.35a69.44,69.44,0,0,1-9.16,6.17q-4.17.82-9.25,2.27,2.54-2.9,9.34-10.15,1.63-1.72,1.63-2.63-.18-2-3.26-2.18a1.07,1.07,0,0,0-1.09.82q-.09.82-1.9,2.72a85.17,85.17,0,0,1-7.71,7.8q-1.27,1-1.27,1.72a10,10,0,0,0,.54,3.08q-21.13,6.26-27.83,6.53-1.27,0-1.27.54t2.18,1.36a15.11,15.11,0,0,0,6.07,1.18,24.18,24.18,0,0,0,10.61-2.54,103.12,103.12,0,0,1,19-6.35,67.49,67.49,0,0,1,15.87-2q7,.09,14.33.54,4.9.27,8,.27,2.9,0,2.9-1.18Q452.81,248.92,448.91,246.47Z" transform="translate(-355.61 -216.67)"/><path class="cls-1" d="M815,394.18q-2.09-2.93-3.26-3-.27,0-.52,1.59-1.36,7.61-3.2,9.71-2.19,3-7.16,2.51-5.69-.54-7.33-2.43-1.68-1.53-1.35-5a41.14,41.14,0,0,1,.86-5.2,38.87,38.87,0,0,0,1.46-7.69q.45-4.69-1.38-7.51a6.74,6.74,0,0,0-1.91-1.91q2.46-4.87,2.71-7.39a1.53,1.53,0,0,0,0-.46,65.19,65.19,0,0,1,11.29-2.84q1.55,0,1.74-2Q807,361,805,359.73a10.46,10.46,0,0,0-4.06-1.39,7.13,7.13,0,0,0-3.21,1.15q-17.3,7.65-23.62,8.05-1,.18-1.1,1a5.61,5.61,0,0,0,1,3.19,4.55,4.55,0,0,0,3.61,2.26q2.26.13,9.35-3.48a4.62,4.62,0,0,1,.48-.23,70.8,70.8,0,0,1-10.38,19.14q-7.73,10.38-10.61,10.1-.81-.08-1.6-1.34a.88.88,0,0,0-.75-.71q-.82,0-1.39,3.15-.09,2.9,2.61,3.16,3,.28,8.36-3.67Q779.43,395.28,788,381l.77-1.38a6.86,6.86,0,0,1,.69,4.26,71.74,71.74,0,0,1-1.4,9q-.92,3.92-1,5a9.06,9.06,0,0,0,3.16,8q5,3.75,14.85,4.69,5.32.51,8.35-2.58a11.64,11.64,0,0,0,3.26-7.52A9.9,9.9,0,0,0,815,394.18Z" transform="translate(-355.61 -216.67)"/><path class="cls-1" d="M787.89,346.35q3.24,2.31,9.74,2.93a16.79,16.79,0,0,0,6.74-1,3.84,3.84,0,0,0,2.58-3.22,4.56,4.56,0,0,0-1.29-3.67,6.32,6.32,0,0,0-3.35-1.14,10.23,10.23,0,0,0-6.44,1.67q-2.72,1.84-8.77,1.26c-.72-.07-1.09,0-1.12.26Q785.86,344.79,787.89,346.35Z" transform="translate(-355.61 -216.67)"/><path class="cls-1" d="M764.58,377.11q-4.24,4.33-8.21,7.87c2.22-3.55,6.52-8,8.1-12.48,2.9-6.89,3.32-9.35,3.49-11.1a2.56,2.56,0,0,0-2.61-3.16,20.12,20.12,0,0,0-5.83.36,56.89,56.89,0,0,0,.18-6.72,22.52,22.52,0,0,0,7.92-.89q2.82-.92,3-3.17a4.38,4.38,0,0,0-1.39-3.59A5.41,5.41,0,0,0,766,343a15.85,15.85,0,0,0-8.15,1.41q-3.33,1.51-11,.78c-.72-.07-1.09,0-1.12.26q-.15,1.54,2.26,3a19.9,19.9,0,0,0,6.84,2.74q-.13,3.27-.6,9.23a19.28,19.28,0,0,0-3.55,1.94q-10,5.88-10.48,10.66-.25,2.62,10.53,10-2.45,3.68-4.62,6.48-3.89,4.55-4,5.81-.31,5.16,3.12,5.49,2.25.21,7.23-5.14,6.07-6.35,12.48-18.22A.32.32,0,0,0,764.58,377.11Zm-5.29-10.87c7.51-6.21-.87,9.15-.87,9.15Zm-7.49,15q-8.57-5.64-8.36-7.9.16-1.71,8-5,1.15-.62,2.2-1.07-.52,5.51-1.11,12.65A9.4,9.4,0,0,0,751.8,381.27Z" transform="translate(-355.61 -216.67)"/><path class="cls-2" d="M706.39,403.75l-.14,0-.45,3.06.81.12.45-3a2.6,2.6,0,0,1-.51-.09Z" transform="translate(-355.61 -216.67)"/><path class="cls-2" d="M697.57,395.42c1.86,2.73,5.62,7.7,8.68,8.3l.14,0,.16,0a2.6,2.6,0,0,0,.51.09c1.26.11,4.68-.23,11-5.09A24,24,0,0,1,697.57,395.42Z" transform="translate(-355.61 -216.67)"/><path class="cls-2" d="M720.39,393.76c-.29,2-5.8,2.76-12.31,1.8s-11.55-3.32-11.27-5.28v0h0l-.6,4.07a13.32,13.32,0,0,0,1.36,1.1,24,24,0,0,0,20.51,3.36c.54-.14,1.08-.3,1.63-.48l.67-4.57h0S720.39,393.75,720.39,393.76Z" transform="translate(-355.61 -216.67)"/><path class="cls-2" d="M708.08,395.56c6.51,1,12,.15,12.31-1.8,0,0,0,0,0,0,.23-1.91-4.59-4.2-10.88-5.19l-.09.62c5.18.83,9.14,2.72,8.91,4.29s-4.78,2.28-10.16,1.49-9.53-2.74-9.29-4.35,4.55-2.24,9.74-1.54l.09-.62c-6.29-.86-11.56-.06-11.88,1.83v0C696.52,392.24,701.57,394.6,708.08,395.56Z" transform="translate(-355.61 -216.67)"/><path class="cls-2" d="M716.12,393.13c-.18,1.25-3.7,1.76-7.85,1.15s-7.37-2.12-7.19-3.37,3.47-1.72,7.43-1.21l.1-.66c-5.19-.7-9.51,0-9.74,1.54s3.92,3.56,9.29,4.35,9.92.13,10.16-1.49-3.72-3.47-8.91-4.29l-.1.66C713.28,390.47,716.29,391.92,716.12,393.13Z" transform="translate(-355.61 -216.67)"/><path class="cls-2" d="M701.08,390.91c-.18,1.25,3,2.75,7.19,3.37s7.67.1,7.85-1.15-2.83-2.66-6.8-3.31l-.3,2.06-.81-.12.3-2.06C704.55,389.19,701.26,389.71,701.08,390.91Z" transform="translate(-355.61 -216.67)"/><polygon class="cls-2" points="352.9 173.03 352.59 175.1 353.4 175.22 353.71 173.15 353.8 172.49 353.89 171.87 354.34 168.88 353.53 168.76 353.09 171.75 353 172.37 352.9 173.03"/><path class="cls-2" d="M816.11,376.74l-2.5.75c1.47-.44,3.55,2.16,4.65,5.82s.8,7-.68,7.42l2.58-.78A11.43,11.43,0,0,0,816.11,376.74Z" transform="translate(-355.61 -216.67)"/><path class="cls-2" d="M818.26,383.31c-1.1-3.66-3.18-6.26-4.65-5.82-1,.3-1.46,1.94-1.31,4.11l1.91-2.11a8.63,8.63,0,0,1,2.73,9.08l-2.83-.77c1.09,2,2.43,3.24,3.47,2.93C819.05,390.29,819.35,387,818.26,383.31Z" transform="translate(-355.61 -216.67)"/><path class="cls-2" d="M816.94,388.57a8.63,8.63,0,0,0-2.73-9.08l-1.91,2.11-1.84,2,1,3.46h0l2.61.71Z" transform="translate(-355.61 -216.67)"/><path class="cls-2" d="M810.46,383.63h0l-3.83-1a10.41,10.41,0,0,1,2.32,7.34l2.55-2.83h0Z" transform="translate(-355.61 -216.67)"/><path class="cls-2" d="M806.63,382.58a10.37,10.37,0,0,0-2.14-2l-2.36.71c1.39-.42,3.36,2,4.4,5.5s.75,6.59-.64,7l2.44-.73a12.76,12.76,0,0,0,.62-3.1A10.41,10.41,0,0,0,806.63,382.58Z" transform="translate(-355.61 -216.67)"/><ellipse class="cls-2" cx="804" cy="387.5" rx="2.63" ry="6.53" transform="matrix(0.96, -0.29, 0.29, 0.96, -433.1, 30.97)"/><path class="cls-2" d="M670.26,245.61l-.44-.06-.1.14Z" transform="translate(-355.61 -216.67)"/><path class="cls-2" d="M667.14,245.23a1.77,1.77,0,0,1-.14-.54.74.74,0,0,1,0-.35l0,0c0-.07,0-.12,0-.12h0l.05-.1L653,242.36l2.24,3.65Z" transform="translate(-355.61 -216.67)"/><path class="cls-2" d="M665.26,245.69a17.07,17.07,0,0,0,2-.3v0C666.72,245.46,666,245.57,665.26,245.69Z" transform="translate(-355.61 -216.67)"/><path class="cls-2" d="M670,244.91a.69.69,0,0,1,0,.07,1.52,1.52,0,0,1,0,.28L684,246.46a29.43,29.43,0,0,0-3.15-3.17,100,100,0,0,0-11,.93A.85.85,0,0,1,670,244.91Z" transform="translate(-355.61 -216.67)"/><path class="cls-2" d="M684,246.54l0,.08h.07A.32.32,0,0,0,684,246.54Z" transform="translate(-355.61 -216.67)"/><polygon class="cls-2" points="297.4 25.69 296.86 26.73 299.09 30.38 299.64 29.34 297.4 25.69"/><path class="cls-2" d="M667.14,245.23l-11.89.78-.54,1s6.64-.76,10.55-1.36c.78-.12,1.46-.23,1.94-.33Z" transform="translate(-355.61 -216.67)"/><path class="cls-2" d="M684.07,246.47H684l-14.06-1.21a1.17,1.17,0,0,1-.12.3l.44.06h.08v0l13.32,1.79.34-.79,0-.08Z" transform="translate(-355.61 -216.67)"/><path class="cls-2" d="M670.26,245.33l-.54.09a1.47,1.47,0,0,1-1.18.39,2.21,2.21,0,0,1-.58-.12l-1.1.17a364,364,0,0,1-8.54,38.46s.85,2.47,3.07.25c0,0,9.38-35.5,9-39.23v0Z" transform="translate(-355.61 -216.67)"/><path class="cls-2" d="M667,244.18s0,0,0,.12a.72.72,0,0,1,0-.11Z" transform="translate(-355.61 -216.67)"/><path class="cls-2" d="M669.71,245.7l.1-.14a1.17,1.17,0,0,0,.12-.3,1.52,1.52,0,0,0,0-.28,1.41,1.41,0,0,1-1.68.67,1.62,1.62,0,0,1-1.3-1,1.77,1.77,0,0,0,.14.54l.07.13v0a1.36,1.36,0,0,0,.74.58,2.21,2.21,0,0,0,.58.12A1.47,1.47,0,0,0,669.71,245.7Z" transform="translate(-355.61 -216.67)"/><path class="cls-2" d="M667,244.29l0,0a.74.74,0,0,0,0,.35,1.62,1.62,0,0,0,1.3,1A1.41,1.41,0,0,0,670,245a.69.69,0,0,0,0-.07.85.85,0,0,0-.2-.69,1.88,1.88,0,0,0-1.12-.62,1.56,1.56,0,0,0-1.6.48l-.05.1A.72.72,0,0,0,667,244.29Z" transform="translate(-355.61 -216.67)"/><path class="cls-3" d="M650.76,238.41s-3.45,0-2.3,4.59" transform="translate(-355.61 -216.67)"/><path class="cls-3" d="M651.91,239.56s-3.45,0-2.3,4.59" transform="translate(-355.61 -216.67)"/><path class="cls-3" d="M688.37,246.1s2.44-2.44-1.62-4.87" transform="translate(-355.61 -216.67)"/><path class="cls-3" d="M686.75,246.1s2.44-2.44-1.62-4.87" transform="translate(-355.61 -216.67)"/><path class="cls-2" d="M375.41,248.27l0-.09c-.17-.23-.34-.45-.5-.68-3.32-2.45-12.07-7.81-19.05-2.32L359,248s7.46-6.3,15.23,1a9.41,9.41,0,0,1,1.21-.71Z" transform="translate(-355.61 -216.67)"/><path class="cls-2" d="M360.74,237.08l-2.82,3.17s11.15.52,16.07,5.95a25.32,25.32,0,0,1-1.65-3.15C369.13,239.64,364.75,236.2,360.74,237.08Z" transform="translate(-355.61 -216.67)"/><path class="cls-2" d="M375.36,248.17l0,.09v0Z" transform="translate(-355.61 -216.67)"/><path class="cls-2" d="M370.3,236.3a16.13,16.13,0,0,0-5.1-5.1l-3.52,1.41a69.39,69.39,0,0,1,10.5,10A31.09,31.09,0,0,1,370.3,236.3Z" transform="translate(-355.61 -216.67)"/><path class="cls-2" d="M375.41,248.27v.06l.05,0-.06-.07Z" transform="translate(-355.61 -216.67)"/><path class="cls-2" d="M375.41,248.23l.06.07a7.49,7.49,0,0,1,1.14-.44c-1.67-4.22-5.67-15.53-3.31-21.94l-3.52,1.41a34.73,34.73,0,0,0,.53,9,31.09,31.09,0,0,0,1.88,6.35l.17.38a25.32,25.32,0,0,0,1.65,3.15c.27.44.56.87.87,1.3.16.23.33.46.5.68Z" transform="translate(-355.61 -216.67)"/><path class="cls-2" d="M377.83,245c.56-8.17,9.54-14.51,9.54-14.51l-.82-3.76a17.89,17.89,0,0,0-9.26,12.73,19.92,19.92,0,0,0,.37,7.14C377.7,246.14,377.75,245.6,377.83,245Z" transform="translate(-355.61 -216.67)"/><path class="cls-2" d="M377.94,247.63h.4c1.63-10,12.09-12.91,12.09-12.91l-2.93-2.23c-7,2.37-9.08,8.51-9.66,12.52-.08.59-.14,1.13-.17,1.6S377.85,247.34,377.94,247.63Z" transform="translate(-355.61 -216.67)"/><path class="cls-2" d="M377.66,246.62a19.92,19.92,0,0,1-.37-7.14,22.13,22.13,0,0,1,3.28-9h-3.4a16.67,16.67,0,0,0-.21,17.27,5.57,5.57,0,0,1,1-.14C377.85,247.34,377.76,247,377.66,246.62Z" transform="translate(-355.61 -216.67)"/><path class="cls-2" d="M378.39,247.63h.19l.47,1.17c1.52-8.1,13.61-6.81,13.61-6.81l1.41-3.29C381.9,237.94,379,245.15,378.39,247.63Z" transform="translate(-355.61 -216.67)"/><path class="cls-2" d="M374,251.22a6.28,6.28,0,0,0-1.33,1.16l.7,1.76.08,0c.11-.82,1.57-2,3.56-2.78s3.85-1,4.49-.44l.08,0-.7-1.76c-.58,0-1.12.1-1.63.18l0,.12Z" transform="translate(-355.61 -216.67)"/><path class="cls-2" d="M377,251.33c-2,.8-3.44,2-3.56,2.78a.63.63,0,0,0,0,.33c.32.81,2.43.73,4.69-.18s3.84-2.3,3.52-3.11a.63.63,0,0,0-.2-.26C380.84,250.38,379,250.54,377,251.33Z" transform="translate(-355.61 -216.67)"/><path class="cls-2" d="M378.39,247.63h-.45a5.57,5.57,0,0,0-1,.14l-.35.09a7.49,7.49,0,0,0-1.14.44l-.05,0a9.41,9.41,0,0,0-1.21.71,8.4,8.4,0,0,0-.91.71l.68,1.48h0l5.3-1.83,0-.12-.19-.47-.47-1.17Z" transform="translate(-355.61 -216.67)"/><path class="cls-2" d="M835.9,380.77a29,29,0,0,1-9.92-6.84,3.22,3.22,0,0,0-2-1c-1.58-.14-2.19,1.16-2.11,2.45a6.75,6.75,0,0,0,2.28,4.15c5.84,5.73,11,2.3,11,2.3l.47-.6Z" transform="translate(-355.61 -216.67)"/><path class="cls-2" d="M835.12,381.78s-5.14,3.43-11-2.3a6.75,6.75,0,0,1-2.28-4.15c-.08-1.28.52-2.59,2.11-2.45a3.22,3.22,0,0,1,2,1,29,29,0,0,0,9.92,6.84l.14-.18.47-.6.24-.31a22.26,22.26,0,0,1-10.18-6.23,4.55,4.55,0,0,0-2.74-1.37c-1.32-.15-3.35.61-3,3.4.27,2.39,2,4.32,3.75,6a8.08,8.08,0,0,0,9.64,1.55l.47-.6Z" transform="translate(-355.61 -216.67)"/><path class="cls-2" d="M834.32,383l-22.89,30.53s-.69.89.93,1.27l23.7-31.57A7.76,7.76,0,0,0,834.32,383Z" transform="translate(-355.61 -216.67)"/><path class="cls-2" d="M840,378c-.23-.3-.69-.54-1.58-.44L837,379.39a8.12,8.12,0,0,1,1.76.2Z" transform="translate(-355.61 -216.67)"/><path class="cls-2" d="M814,416.36l27.81-37s.33-1.67-1.8-1.4l-.07.1-1.18,1.58c1.86.46,1.66,1.52,1.66,1.52l-.47.6-.47.6-.47.6-.47.6-.47.6-.47.6s.2-1-1.58-1.5l-23.7,31.57-.14.18S811.3,416.16,814,416.36Z" transform="translate(-355.61 -216.67)"/><path class="cls-2" d="M840,381.71l.47-.6s.21-1.07-1.66-1.52a8.12,8.12,0,0,0-1.76-.2h0l-.22.29-.24.31C840.31,380,840,381.71,840,381.71Z" transform="translate(-355.61 -216.67)"/><path class="cls-2" d="M836.51,380l-.47.6c3.8.06,3.46,1.73,3.46,1.73l.47-.6S840.31,380,836.51,380Z" transform="translate(-355.61 -216.67)"/><path class="cls-2" d="M836,380.58l-.14.18-.32.42c3.8.06,3.46,1.73,3.46,1.73l.47-.6S839.84,380.65,836,380.58Z" transform="translate(-355.61 -216.67)"/><path class="cls-2" d="M835.58,381.18l-.47.6c3.8.06,3.46,1.73,3.46,1.73l.47-.6S839.38,381.25,835.58,381.18Z" transform="translate(-355.61 -216.67)"/><path class="cls-2" d="M835.12,381.78l-.47.6c3.8.06,3.46,1.73,3.46,1.73l.47-.6S838.91,381.85,835.12,381.78Z" transform="translate(-355.61 -216.67)"/><path class="cls-2" d="M837.65,384.71l.47-.6s.33-1.67-3.46-1.73l-.47.6h.14a7.76,7.76,0,0,1,1.74.22C837.85,383.68,837.65,384.71,837.65,384.71Z" transform="translate(-355.61 -216.67)"/><path class="cls-2" d="M778,263a10.11,10.11,0,0,1,3.46,1.29,26.33,26.33,0,0,1-3.38-.77Z" transform="translate(-355.61 -216.67)"/><path class="cls-2" d="M776.7,245.4c5.76,1.05,12.6,2.44,14.73,3.94,3.64,2.56.8,10.21-1.34,12.93-1.33,1.69-3.57,2.2-5.81,2.2.74-5.42-.51-7.53-.51-7.53-.45-.45-2.23-.45-2.23-.45s.09.23.13.34a10.13,10.13,0,0,1-4.13,2v-.95h0A6,6,0,0,0,776.26,246h.33Z" transform="translate(-355.61 -216.67)"/><path class="cls-2" d="M784.28,264.47c2.25,0,4.49-.51,5.81-2.2,2.14-2.73,5-10.37,1.34-12.93-2.13-1.5-9-2.88-14.73-3.94v-.06c2.1.09,11.2.62,15.17,3.11,3.12,2,3.6,9.78-.45,13.83a10,10,0,0,1-7.94,2.86,4.54,4.54,0,0,0,.72-.16C784.24,264.8,784.25,264.64,784.28,264.47Z" transform="translate(-355.61 -216.67)"/><path class="cls-2" d="M781.5,264.24l.54.33c0,.18,0,.31-.05.37a16.31,16.31,0,0,1-3.84-1.28l0-.18A26.33,26.33,0,0,0,781.5,264.24Z" transform="translate(-355.61 -216.67)"/><path class="cls-2" d="M776.26,245.32h0Z" transform="translate(-355.61 -216.67)"/><path class="cls-2" d="M778,263l.08.52,0,.18,1.62,10.24a6.43,6.43,0,0,1-5.26,0l.7-10.83A7.25,7.25,0,0,1,778,263Z" transform="translate(-355.61 -216.67)"/><path class="cls-2" d="M779.83,275.65l.42,7.61a3.76,3.76,0,0,1-5.77,0v-7.58A6.46,6.46,0,0,0,779.83,275.65Z" transform="translate(-355.61 -216.67)"/><path class="cls-2" d="M779.77,273.9l.07,0a2.15,2.15,0,0,1,0,1.78,6.46,6.46,0,0,1-5.35,0c-.45-.45,0-1.78,0-1.78h0A6.43,6.43,0,0,0,779.77,273.9Z" transform="translate(-355.61 -216.67)"/><path class="cls-2" d="M780.25,283.26l0,0v3.57c-2.23,2.68-5.8,0-5.8,0v-3.57A3.76,3.76,0,0,0,780.25,283.26Z" transform="translate(-355.61 -216.67)"/><path class="cls-2" d="M777.53,257.9h0v.95a7.39,7.39,0,0,1-2.13.14v-1l.07-.06a5.75,5.75,0,0,0,2.06-.08Z" transform="translate(-355.61 -216.67)"/><path class="cls-2" d="M782.28,252a6,6,0,1,1-6-6A6,6,0,0,1,782.28,252Z" transform="translate(-355.61 -216.67)"/><path class="cls-2" d="M771.53,257.45a7.2,7.2,0,0,0,6,1.4,10.13,10.13,0,0,0,4.13-2c.94,2.62.54,6.48.37,7.72l-.54-.33A10.11,10.11,0,0,0,778,263a7.17,7.17,0,0,0-6.14,1.89C770.93,262.2,771.37,258.53,771.53,257.45Z" transform="translate(-355.61 -216.67)"/><path class="cls-2" d="M769.35,257.14a3.48,3.48,0,0,1,2.23,0s0,.11,0,.31c-.16,1.08-.6,4.75.37,7.39l.13.33s-1.78,0-2.23-.45C769.8,264.72,768.46,262.94,769.35,257.14Z" transform="translate(-355.61 -216.67)"/><path class="cls-2" d="M781.67,256.84c0-.12-.09-.23-.13-.34s1.78,0,2.23.45c0,0,1.25,2.11.51,7.53,0,.17,0,.33-.07.5a4.54,4.54,0,0,1-.72.16A2.66,2.66,0,0,1,782,265v0c0-.06,0-.18.05-.37C782.2,263.32,782.61,259.46,781.67,256.84Z" transform="translate(-355.61 -216.67)"/><path class="cls-2" d="M776.6,246h-.73a1.78,1.78,0,0,1,.43-.66h0c.25-.2.4,0,.4,0v.08Z" transform="translate(-355.61 -216.67)"/></svg>