<svg xmlns="http://www.w3.org/2000/svg" viewBox="0 0 58.95 285.02"><title>abouttoy</title><g id="圖層_2" data-name="圖層 2"><g id="圖層_1-2" data-name="圖層 1"><path d="M9.06,10.32q.44,0,1.45,2.33a11.85,11.85,0,0,1,1.32,5.47,43.35,43.35,0,0,1-1,7.36,98.22,98.22,0,0,0-.94,13.78q0,2,.5,7.49,0,2-1.82,2-1.38,0-2.26-3.21a24.31,24.31,0,0,1-.75-5.1q0-2.7,1.82-12.33A81.73,81.73,0,0,0,8.81,14.78a18.63,18.63,0,0,0-.5-4Q8.3,10.32,9.06,10.32Zm4.53-4.09a5.36,5.36,0,0,1,2,.38A3.51,3.51,0,0,0,17.11,7a6.18,6.18,0,0,0,2.71-1,7.05,7.05,0,0,1,.88-.38V4.28a4.77,4.77,0,0,0-.25-1.51q0-.76,1.45-.75a4.23,4.23,0,0,1,2.64.82,2.87,2.87,0,0,1,.82.75,17.93,17.93,0,0,1,5.91-1.32A5.43,5.43,0,0,1,34.6,3.52a6.51,6.51,0,0,0,2.2,1.26q.44,0,1.32-1Q41.15,0,43,0q2.14,0,4.47,2.39Q50.14,4.66,50.14,7q0,2.71-.38,9.63-.44,7.86-.44,13.71,0,4.15.5,13.46a21.86,21.86,0,0,1-1.38,8.24q-1.32,2.7-2.83,2.71a2.14,2.14,0,0,1-2.08-1.51,28.41,28.41,0,0,0-3-5.47q0-.5,1.57-.5a3.77,3.77,0,0,0,2.64-.69,11.89,11.89,0,0,0,.13-2.08V6.23q0-1.45-.82-1.45A7,7,0,0,0,41.52,6.1q-2.58,2-3.77,2T34.92,6.23q-2.33-1.95-3.4-2a15.45,15.45,0,0,0-5.6,1.45,9,9,0,0,1-1.38,4.15q-1.2,1.89-2.14,1.89-1.64-.25-1.7-2.2V8.49q-1.45.82-2.71,1.7a5.61,5.61,0,0,1-2.58,1.07,2.15,2.15,0,0,1-2-1.2,6.32,6.32,0,0,1-.57-3Q13,6.29,13.59,6.23Zm5.54,6.1a4.27,4.27,0,0,1,2.08,1.26,3.48,3.48,0,0,1,1.2,2.71q-.06.94-2,3.15a17.75,17.75,0,0,0-1.32,1.45.22.22,0,0,0,.25.25l3.21-.82q2.39-2.7,2.58-3.77c0-.29.19-.44.57-.44s.73.29,1.32.88a3.29,3.29,0,0,1,.88,2q.5-.76,1.07-1.51,3.65-4.78,4.22-6.86.88,0,2.33,1.76a2.93,2.93,0,0,1,1,2.2q0,.63-1.07,1.64a15.2,15.2,0,0,1-1.26,1.13Q36.8,17.05,38,17a1.88,1.88,0,0,1,1.32,1.82q-.13.63-2,2.14l-2.71,2.08a8.62,8.62,0,0,1,3,.69,1.74,1.74,0,0,1,1.13,1.57q0,1.07-2,2.14a2.88,2.88,0,0,1,1.07.94q.94,1.51.94,7.49A4.13,4.13,0,0,1,38,38.57a1.46,1.46,0,0,1-1.2.69,1.35,1.35,0,0,1-1.32-1L33,38.38v9.69q-.25,2.45-2.26,2.77-1.38-.32-1.45-3a7,7,0,0,1,.19-1.7q.06-1,.25-6.17.25-4.78.25-8.24a3,3,0,0,0-1.45-2.45q-.5-.25-.57-.57,0-.57,1.32-.57a4,4,0,0,1,2.08.57,6.33,6.33,0,0,0,1.13-2,.22.22,0,0,0-.25-.25q-2.71.25-3.46.25a2.2,2.2,0,0,1-1.2-.25,2.21,2.21,0,0,1,.13.69q0,1.32-1.45,1.32-.82,0-1.7-1.2s0-.06,0-.06l-1.45.88a4.82,4.82,0,0,1,1.07,1,8.53,8.53,0,0,1,1,4.66,18.93,18.93,0,0,1-2,7.23,14.46,14.46,0,0,1-4.72,5.85,3.2,3.2,0,0,1-1.89,1,.22.22,0,0,1-.25-.25,20.29,20.29,0,0,0,4.15-7.36,13,13,0,0,0,.5-1.82,34.29,34.29,0,0,0-5,1.57,2.42,2.42,0,0,1-1.13.5q-1.2-.13-1.32-.94,0-.57.94-1.38a4.36,4.36,0,0,0,.5-2,17.21,17.21,0,0,1,.25-2.64,2.08,2.08,0,0,0,.13-.63q0-.69.5-.69a3,3,0,0,1,1.2.57,2.28,2.28,0,0,1,.94,2c0,.46.08.69.25.69q2.2-.76,3.46-1.26.13-1.51.13-3a7.13,7.13,0,0,0-.38-2.26q-4,2.26-4.91,2.26-2,0-2-2.26,0-1,1.2-1.38a23.36,23.36,0,0,0,3.77-3.71,19,19,0,0,1-3.65,1q-1.83,0-1.82-2.52,0-.31.88-1.13a21.3,21.3,0,0,0,3.9-4.34,3.1,3.1,0,0,0,.75-1.76,4.86,4.86,0,0,0-.75-2.52A.22.22,0,0,1,19.13,12.33Zm8.05,13.15a3.41,3.41,0,0,1,1.45-1.57q1.64-1.19,4-3l-1.7.38a12.83,12.83,0,0,1-1.64.25q-1.83,0-1.82-1.45a1.43,1.43,0,0,1-.5.5,50.94,50.94,0,0,0-7.3,6c0,.29.08.44.25.44a15.74,15.74,0,0,0,3.71-2,2.79,2.79,0,0,1-.13-.75.61.61,0,0,1,.69-.69,3.7,3.7,0,0,1,2.58,1.13A2.72,2.72,0,0,1,27.18,25.48ZM33,34.67l2.2-.13Q35.1,33.78,35,33q-.19-1.95-.19-2.89a5.2,5.2,0,0,0-.25-1.51l-2.33.88a3.42,3.42,0,0,1,.75,2.2Z"/><path d="M23.4,92.09a11.91,11.91,0,0,1,3.33,1,2.81,2.81,0,0,1,2,2.58q0,3-3.59,3a27.33,27.33,0,0,0-3.77-.5c-.55,0-1.09,0-1.64.06a3.21,3.21,0,0,1,.13.88,8.51,8.51,0,0,1-.44,2.71,15.23,15.23,0,0,1,4.34,2.39,3.49,3.49,0,0,1,1.13,2.52,39.45,39.45,0,0,1-1.32,9.63q-2,7.3-4.91,10.63-2.14,2.33-3.52,2.33-2.39-.06-4.59-2.71a7.42,7.42,0,0,1-1.76-4.53c0-.54.21-.82.5-.82q3.08,2,4.53,2a2.86,2.86,0,0,0,2.39-1.57Q17.87,119.84,19,114a42.7,42.7,0,0,0,.88-7.24A4.11,4.11,0,0,0,18.5,104q-.5.88-1.13,1.82A64,64,0,0,1,10,116.12a39.92,39.92,0,0,1-6.48,6.1,5.85,5.85,0,0,1-3,1.07c-.34,0-.5-.08-.5-.25q3.65-2.52,9.06-9.94a53.85,53.85,0,0,0,6.23-10.63,12.44,12.44,0,0,0,1.2-3.84A47.49,47.49,0,0,0,7,101.34a12,12,0,0,1-3.71,1.07q-1.51,0-1.7-.94,0-.57.88-.63,8.81-3.77,13.4-5.6a45.46,45.46,0,0,0,5.85-2.45A3,3,0,0,1,23.4,92.09ZM12.65,81a12,12,0,0,1,6.79,2q3.21,2.08,3.21,5.1,0,1.76-1.2,1.76-4.66,0-6,1.13a2,2,0,0,1-1.32.82v-.5q2-2.39,2-3.71t-2.58-4.09q-1.38-1.38-1.38-1.7Q12.14,81,12.65,81Zm24.41-.5a4,4,0,0,1,2.89,1.38,4.93,4.93,0,0,1,1.32,3.65,11.39,11.39,0,0,1-1.13,4l-.82,1.64a27.58,27.58,0,0,1,10.95,3q6.35,3.08,6.35,7.68,0,1.83-1.2,1.82a35.91,35.91,0,0,0-7.23.44,6,6,0,0,1-1.64.25V104q3.59-1.63,3.59-2.52,0-2.26-9.19-6.67-1.64-.82-2.83-1.45a63.72,63.72,0,0,1-5,8.05,21.91,21.91,0,0,1-6.35,5.54c-.17,0-.25-.06-.25-.19a90.31,90.31,0,0,0,9-19.06,15.78,15.78,0,0,0,1.07-4.4,1.79,1.79,0,0,0-.76-1.51.68.68,0,0,1-.31-.5Q35.48,80.52,37.06,80.52ZM36.3,103a9.12,9.12,0,0,1,5.1,1.32q2.39,1.57,2.39,3.65,0,1.89-3.9,4.15-3.34,2.64-3.33,3.4a3.69,3.69,0,0,0,1.89,3.27q6.92,4.22,6.92,7.8a1.6,1.6,0,0,1-1.57,1.32q-4-.19-7.3-4.4a10,10,0,0,1-2-6.42q0-1.76,2.58-5.1,2.2-2.7,2.2-4,0-.82-4.09-4.47Q35.23,103,36.3,103Z"/><path d="M29.51,166.63q2.14.06,2.26,1.51,0,.63-1.13,1.82-4.72,5-6.54,7,3.59-1,6.42-1.51a43.87,43.87,0,0,0,6.35-4.34q2.2-1.57,2.2-3a2,2,0,0,0-.63-1.64q-.69-.44-.69-.88.06-.88,2.08-.94a3.4,3.4,0,0,1,2.33,1.07,4.08,4.08,0,0,1,1.13,2.64q0,1.89-5.54,6,3.27-.44,6-.94a28.61,28.61,0,0,1,5.85-.69,8.15,8.15,0,0,1,3.9,1q2.7,1.7,2.71,3,0,.76-2.08.75t-5.54-.13q-5.1-.31-9.88-.38a46.26,46.26,0,0,0-11,1.38,71.6,71.6,0,0,0-13.21,4.4,17.06,17.06,0,0,1-7.36,1.76,10.94,10.94,0,0,1-4.28-.82q-1.45-.57-1.57-.94t1-.38q4.65-.19,19.25-4.59a5.31,5.31,0,0,1-.31-2,1.85,1.85,0,0,1,.82-1.26,49.87,49.87,0,0,0,5.35-5.41,4.51,4.51,0,0,0,1.38-1.89A.68.68,0,0,1,29.51,166.63Zm10.32,12.58q.88,0,3,1.82a5.25,5.25,0,0,1,1.82,2.77A1.77,1.77,0,0,1,44,185a8,8,0,0,0-.75,1.89A38.18,38.18,0,0,1,41.46,192a2.78,2.78,0,0,1-1.89,1.51,60.68,60.68,0,0,1-6.79,1.57,8.19,8.19,0,0,1-.06,1q5.54.31,5.54,4.72a3.41,3.41,0,0,1-1.45,2.39q-1,.69-2.26,1.51,3.84-.44,6.79-.82a29.67,29.67,0,0,1,4.47-.38A8.39,8.39,0,0,1,50,204.69q2.89,1.7,2.89,3.15,0,.75-2,.75-1.64,0-4.21-.19-3.77-.25-7.3-.31-4.53.06-8.62.44a93.63,93.63,0,0,0-10.13,1.76,24.58,24.58,0,0,1-5.73.69,11,11,0,0,1-4.47-.88q-1.51-.57-1.64-.94c0-.12.25-.19.75-.19q3.4-.13,13.84-2.39a1.67,1.67,0,0,1-1.2-.88,3.57,3.57,0,0,1-.57-2.08q0-2.08,3.65-4.84a15.07,15.07,0,0,1,4.66-2.33v-.82a14.29,14.29,0,0,1-2,.19q-2.2,0-2.2-1.2,0-.5,1.2-1.07l3-1.13v-1.89a2.08,2.08,0,0,0-.38.13,9.5,9.5,0,0,1-2.83.69,4.08,4.08,0,0,1-2.14-.57q-.82-.38-.88-.75c0-.17.1-.25.31-.25q1.57,0,4.59-2a8.17,8.17,0,0,1,1.32-.69v-.82a12.84,12.84,0,0,0-.19-1.89,13.25,13.25,0,0,1-2.83.57q-3.15-.06-3.21-2,0-.5,1.7-1a95.32,95.32,0,0,1,9.81-2.26,24.76,24.76,0,0,0,3.33-.5Q39.45,179.21,39.82,179.21ZM15.67,163.86a13.77,13.77,0,0,0,3.71.57q6.54,0,15.48-4.34a12.65,12.65,0,0,1,3.4-1.51,10.53,10.53,0,0,1,3.4,1q1.57.57,1.64,1.76,0,2.14-2.52,2.26a45.12,45.12,0,0,0-12.14,2.33,19.43,19.43,0,0,1-6.23,1.76,9.67,9.67,0,0,1-4.91-1.38q-2.08-1.07-2.08-1.89Q15.41,163.86,15.67,163.86Zm2.77,22a6.32,6.32,0,0,1,2,.25,5.19,5.19,0,0,1,2.83,3.08,15.85,15.85,0,0,1,1.2,5q0,2.52-.69,2.52a2.5,2.5,0,0,1-2-1.2q-.82-1.07-1.7-5.41a7.76,7.76,0,0,0-1.64-2.58,1.89,1.89,0,0,1-.69-1.13Q17.68,185.82,18.43,185.82Zm5.28-32a17.69,17.69,0,0,1,3,.44,11.58,11.58,0,0,1,4.78,2.08A3.73,3.73,0,0,1,33,158.89q-.13,2.58-2.26,2.77-1.2,0-2.14-1.82a18.08,18.08,0,0,0-4.4-5.16c-.29-.25-.44-.44-.44-.57ZM24,206.45l.69-.13q3.08-.69,5.6-1.07-.13-1.38-.25-4.09A9.11,9.11,0,0,0,27,202.55q-2.64,1.57-2.89,3.4A1.31,1.31,0,0,1,24,206.45Zm8.37-22.65A4.88,4.88,0,0,1,33,186a5.54,5.54,0,0,1,1.32-.19q2.52,0,3.15,1.2a7.05,7.05,0,0,0,.25-1.13,10.56,10.56,0,0,0,.31-1.64q0-.94-.69-.94A35.49,35.49,0,0,0,32.4,183.81Zm.5,6v1.51q2.26-.82,3.65-1.26V190a2.08,2.08,0,0,1,.06-.5l-.31.06A22.28,22.28,0,0,0,32.9,189.85Z"/><path d="M20.2,240.92a3.93,3.93,0,0,1,2.33.63,3,3,0,0,1,1.2,2.39q0,1.57-2,2.39a14.92,14.92,0,0,1-5.41,1.2q.25,1.7.38,4.53a10,10,0,0,1,3.15-.57,1.78,1.78,0,0,1,2,2q0,1.83-2.33,9.31a69.2,69.2,0,0,1-3.33,7.8q2.64-2.83,5.22-6c.13,0,.19.08.19.25a59.08,59.08,0,0,1-7.42,13.4q-3,4-4.59,4-2.45,0-2.52-3.59,0-.88,2.33-4.28,1.32-2.08,2.77-4.78-7.86-4.47-7.86-6.23,0-3.27,6.54-8.05,1.26-.94,2.26-1.57-.06-4.15-.13-6.42a13.3,13.3,0,0,1-4.91-1.45q-1.83-.88-1.82-2,0-.25.82-.25,5.28,0,7.49-1.26A11.35,11.35,0,0,1,20.2,240.92Zm-7,17.62q-.69.38-1.45.88-5.22,2.77-5.22,4,0,1.64,6.29,4.91l.44-1Q13.27,262.25,13.21,258.53Zm32.15-9.31a7.26,7.26,0,0,1,2.89.69,2.16,2.16,0,0,1,1.32,1.82q0,1.38-1,1.57A40.84,40.84,0,0,0,41,256v.25a16.19,16.19,0,0,1-1.45,5.35,4.79,4.79,0,0,1,1.51,1.13,7.77,7.77,0,0,1,1.51,5.1,23.56,23.56,0,0,1-.57,5.41q-.19,1.95-.19,3.71A4.14,4.14,0,0,0,43,280.3q1.19,1.13,5.22,1.13,3.52,0,4.84-2.2,1.13-1.57,1.57-6.92.06-1.13.19-1.13.88,0,2.52,1.89a6.69,6.69,0,0,1,1.57,4.15,8.08,8.08,0,0,1-1.76,5.41A6.89,6.89,0,0,1,51.53,285q-6.86,0-10.51-2.33a6.18,6.18,0,0,1-2.77-5.22,35.2,35.2,0,0,1,.38-3.59,43.66,43.66,0,0,0,.44-6.29,4.76,4.76,0,0,0-.75-2.89l-.06-.06a8.14,8.14,0,0,1-.44,1.07q-4.91,10.44-8.56,14.16Q25.73,283,23.72,283t-2.08-2.08q.25-2.2.75-2.26a.54.54,0,0,1,.57.44q.69.88,1.2.88,2.08,0,6.61-7.74a48.11,48.11,0,0,0,6-13.9,1.46,1.46,0,0,0-.31.19q-4.66,3-6.29,3a3.09,3.09,0,0,1-2.58-1.32,3.89,3.89,0,0,1-.88-2.14.72.72,0,0,1,.69-.75q4.28-.69,15.73-7.11A4.88,4.88,0,0,1,45.36,249.22Zm-.25-12.52a4.25,4.25,0,0,1,2.33.57,3.16,3.16,0,0,1,1.13,2.45A2.54,2.54,0,0,1,47,242.05a11.55,11.55,0,0,1-4.53,1.13,14.17,14.17,0,0,1-7-1.38Q34,240.85,34,240c0-.17.25-.25.75-.25q4.15,0,5.91-1.45A7.36,7.36,0,0,1,45.11,236.7Z"/></g></g></svg>