<svg xmlns="http://www.w3.org/2000/svg" viewBox="0 0 475.11 94.8"><title>資產 20</title><g id="圖層_2" data-name="圖層 2"><g id="圖層_1-2" data-name="圖層 1"><path d="M5.85,18.38q.73,0,2.4,3.86a19.65,19.65,0,0,1,2.19,9.08A71.93,71.93,0,0,1,8.77,43.54,163.09,163.09,0,0,0,7.2,66.4q0,3.34.83,12.42,0,3.34-3,3.34-2.3,0-3.76-5.33A40.34,40.34,0,0,1,0,68.39Q0,63.9,3,47.92a135.65,135.65,0,0,0,2.4-22.13,30.9,30.9,0,0,0-.84-6.58Q4.59,18.38,5.85,18.38Zm7.52-6.79a8.92,8.92,0,0,1,3.34.63,5.81,5.81,0,0,0,2.51.73,10.26,10.26,0,0,0,4.49-1.67,11.72,11.72,0,0,1,1.46-.63V8.35a7.92,7.92,0,0,0-.42-2.51q0-1.25,2.4-1.25A7,7,0,0,1,31.53,6,4.76,4.76,0,0,1,32.89,7.2,29.77,29.77,0,0,1,42.7,5,9,9,0,0,1,48.24,7.1q2.92,2.09,3.65,2.09t2.19-1.67q5-6.27,8.14-6.26,3.55,0,7.41,4Q74,9,74,12.95q0,4.49-.63,16Q72.67,42,72.67,51.68q0,6.89.83,22.34a36.29,36.29,0,0,1-2.3,13.68q-2.19,4.49-4.7,4.49a3.56,3.56,0,0,1-3.45-2.5,47.11,47.11,0,0,0-5-9.08q0-.84,2.61-.83,3.24,0,4.39-1.15a19.81,19.81,0,0,0,.21-3.45V11.59q0-2.4-1.36-2.4-.94,0-4.18,2.19-4.28,3.24-6.26,3.24-1.78,0-4.7-3-3.86-3.24-5.64-3.24-3.55,0-9.29,2.4a15,15,0,0,1-2.3,6.89q-2,3.13-3.55,3.13-2.72-.42-2.82-3.65V15.35q-2.4,1.36-4.49,2.82-2.82,1.78-4.28,1.77a3.57,3.57,0,0,1-3.24-2,10.49,10.49,0,0,1-.94-5Q12.32,11.69,13.36,11.59Zm9.19,10.13q1,0,3.45,2.09a5.77,5.77,0,0,1,2,4.49q-.11,1.57-3.24,5.22a29.32,29.32,0,0,0-2.19,2.4.37.37,0,0,0,.42.42L28.29,35q4-4.49,4.28-6.26c0-.49.31-.73.94-.73s1.22.49,2.19,1.46a5.47,5.47,0,0,1,1.46,3.24q.83-1.25,1.77-2.51,6.05-7.93,7-11.38,1.46,0,3.86,2.92a4.87,4.87,0,0,1,1.67,3.65q0,1-1.77,2.71A25.41,25.41,0,0,1,47.61,30q4.28-.42,6.26-.42a3.13,3.13,0,0,1,2.19,3q-.21,1-3.24,3.55-2.61,2-4.49,3.45a14.31,14.31,0,0,1,4.91,1.15,2.88,2.88,0,0,1,1.88,2.61q0,1.78-3.34,3.55a4.78,4.78,0,0,1,1.77,1.57Q55.13,51,55.13,60.87a6.85,6.85,0,0,1-1.25,4.39,2.42,2.42,0,0,1-2,1.15,2.23,2.23,0,0,1-2.19-1.67l-4.18.21V81q-.42,4.07-3.76,4.59-2.3-.52-2.4-5a11.64,11.64,0,0,1,.31-2.82q.1-1.67.42-10.23.42-7.93.42-13.68a5.06,5.06,0,0,0-2.4-4.07q-.84-.42-.94-.94,0-.94,2.19-.94a6.57,6.57,0,0,1,3.45.94q1.88-2.71,1.88-3.34a.37.37,0,0,0-.42-.42q-4.49.42-5.74.42a3.65,3.65,0,0,1-2-.42,3.68,3.68,0,0,1,.21,1.15q0,2.19-2.4,2.19-1.36,0-2.82-2c-.07-.07-.07-.1,0-.1l-2.4,1.46a8,8,0,0,1,1.77,1.67q1.67,2.51,1.67,7.73a31.41,31.41,0,0,1-3.24,12q-3.55,7-7.83,9.71a5.31,5.31,0,0,1-3.13,1.67.37.37,0,0,1-.42-.42A33.65,33.65,0,0,0,24.85,68a21.6,21.6,0,0,0,.84-3Q18.17,67,17.44,67.55a4,4,0,0,1-1.88.83q-2-.21-2.19-1.57,0-.94,1.57-2.3a7.23,7.23,0,0,0,.84-3.24,28.55,28.55,0,0,1,.42-4.39,3.45,3.45,0,0,0,.21-1q0-1.15.83-1.15a5,5,0,0,1,2,.94,3.78,3.78,0,0,1,1.57,3.24c0,.77.14,1.15.42,1.15q3.65-1.25,5.74-2.09.21-2.51.21-4.91a11.83,11.83,0,0,0-.63-3.76Q19.84,53,18.38,53,15,53,15,49.28q0-1.67,2-2.3,1.15-.52,6.26-6.16a31.48,31.48,0,0,1-6.06,1.67q-3,0-3-4.18,0-.52,1.46-1.88,5.43-5.11,6.47-7.2a5.15,5.15,0,0,0,1.25-2.92,8.06,8.06,0,0,0-1.25-4.18A.37.37,0,0,1,22.55,21.72ZM35.92,43.54a5.66,5.66,0,0,1,2.4-2.61Q41,38.95,44.9,36l-2.82.63a21.39,21.39,0,0,1-2.71.42q-3,0-3-2.4a2.37,2.37,0,0,1-.84.84q-3.34,1.88-12.11,10c0,.49.14.73.42.73q.83,0,6.16-3.34a4.63,4.63,0,0,1-.21-1.25,1,1,0,0,1,1.15-1.15,6.14,6.14,0,0,1,4.28,1.88A4.49,4.49,0,0,1,35.92,43.54Zm9.61,15.24,3.65-.21q-.11-1.25-.31-2.51-.31-3.24-.31-4.8a8.61,8.61,0,0,0-.42-2.51q-1.88.73-3.86,1.46a5.68,5.68,0,0,1,1.25,3.65Z"/><path d="M147.47,25.79A19.73,19.73,0,0,1,153,27.46q3.34,1.46,3.34,4.28,0,5-6,5a45.22,45.22,0,0,0-6.26-.84q-1.36,0-2.71.1a5.33,5.33,0,0,1,.21,1.46,14.14,14.14,0,0,1-.73,4.49q5.32,2.19,7.2,4A5.79,5.79,0,0,1,150,50.12a65.47,65.47,0,0,1-2.19,16q-3.24,12.11-8.14,17.64-3.55,3.86-5.85,3.86-4-.11-7.62-4.49a12.32,12.32,0,0,1-2.92-7.52c.07-.9.35-1.36.83-1.36q5.11,3.34,7.52,3.34t4-2.61q2.71-3.13,4.59-12.84a70.84,70.84,0,0,0,1.46-12q0-2.09-2.3-4.49-.84,1.46-1.88,3a106.16,106.16,0,0,1-12.22,17q-6.47,7.2-10.75,10.13a9.71,9.71,0,0,1-5,1.77c-.56,0-.83-.14-.83-.42q6.05-4.17,15-16.5A89.32,89.32,0,0,0,134,43a20.64,20.64,0,0,0,2-6.37,78.83,78.83,0,0,0-15.77,4.49,19.88,19.88,0,0,1-6.16,1.77q-2.51,0-2.82-1.57,0-.94,1.46-1Q127.32,34,134.94,31a75.4,75.4,0,0,0,9.71-4.07A5,5,0,0,1,147.47,25.79ZM129.62,7.41a19.88,19.88,0,0,1,11.28,3.34q5.32,3.45,5.32,8.46,0,2.92-2,2.92-7.73,0-10,1.88A3.37,3.37,0,0,1,132,25.37v-.83q3.34-4,3.34-6.16t-4.28-6.79q-2.3-2.3-2.3-2.82Q128.78,7.41,129.62,7.41Zm40.51-.84a6.56,6.56,0,0,1,4.8,2.3,8.19,8.19,0,0,1,2.19,6.06,18.9,18.9,0,0,1-1.88,6.68l-1.36,2.71a45.76,45.76,0,0,1,18.17,5q10.54,5.12,10.55,12.74,0,3-2,3-9.29,0-12,.73a9.91,9.91,0,0,1-2.71.42v-.73q6-2.71,6-4.18,0-3.76-15.24-11.07-2.72-1.36-4.7-2.4a105.75,105.75,0,0,1-8.35,13.36A36.36,36.36,0,0,1,153,50.43c-.28,0-.42-.1-.42-.31a149.9,149.9,0,0,0,14.93-31.64,26.21,26.21,0,0,0,1.77-7.31A3,3,0,0,0,168,8.67a1.13,1.13,0,0,1-.52-.84Q167.52,6.58,170.13,6.58Zm-1.25,37.27A15.12,15.12,0,0,1,177.33,46q4,2.61,4,6.06,0,3.13-6.47,6.89-5.53,4.39-5.53,5.64a6.13,6.13,0,0,0,3.13,5.43q11.48,7,11.48,12.95a2.65,2.65,0,0,1-2.61,2.19q-6.58-.31-12.11-7.31Q166,73.82,166,67.24q0-2.92,4.28-8.46,3.65-4.49,3.65-6.68,0-1.36-6.79-7.41Q167.1,43.85,168.88,43.85Z"/><path d="M275.42,21.19q3.55.11,3.76,2.51,0,1-1.88,3Q269.47,35,266.44,38.42q6-1.67,10.65-2.51a73,73,0,0,0,10.54-7.2q3.65-2.61,3.65-5a3.28,3.28,0,0,0-1-2.71q-1.15-.73-1.15-1.46.1-1.46,3.45-1.57a5.64,5.64,0,0,1,3.86,1.77,6.77,6.77,0,0,1,1.88,4.38q0,3.13-9.19,9.92,5.43-.73,9.92-1.57a47.47,47.47,0,0,1,9.71-1.15A13.52,13.52,0,0,1,315.2,33q4.49,2.82,4.49,4.91,0,1.25-3.45,1.25t-9.19-.21q-8.46-.52-16.39-.63a76.83,76.83,0,0,0-18.27,2.3,118.85,118.85,0,0,0-21.93,7.31,28.31,28.31,0,0,1-12.22,2.92,18.16,18.16,0,0,1-7.1-1.36q-2.4-.94-2.61-1.57,0-.63,1.67-.63,7.73-.31,31.95-7.62a8.81,8.81,0,0,1-.52-3.34A3.06,3.06,0,0,1,263,34.25a82.83,82.83,0,0,0,8.88-9q2.19-2.19,2.3-3.13A1.13,1.13,0,0,1,275.42,21.19Zm17.12,20.88q1.46,0,4.91,3,2.82,2.72,3,4.59a2.94,2.94,0,0,1-1,2,13.22,13.22,0,0,0-1.25,3.13,63.15,63.15,0,0,1-2.92,8.56q-.52,1.57-3.13,2.51a100.85,100.85,0,0,1-11.28,2.61,13.69,13.69,0,0,1-.1,1.67q9.19.52,9.19,7.83,0,1.88-2.4,4-1.67,1.15-3.76,2.51,6.37-.73,11.28-1.36a49.07,49.07,0,0,1,7.41-.63,13.92,13.92,0,0,1,7,1.88q4.8,2.82,4.8,5.22,0,1.25-3.34,1.25-2.72,0-7-.31-6.27-.42-12.11-.52-7.52.1-14.3.73a155.62,155.62,0,0,0-16.81,2.92,40.75,40.75,0,0,1-9.5,1.15,18.31,18.31,0,0,1-7.41-1.46q-2.51-.94-2.71-1.57,0-.31,1.25-.31,5.64-.21,23-4a2.78,2.78,0,0,1-2-1.46,5.92,5.92,0,0,1-.94-3.45q0-3.45,6.06-8a25,25,0,0,1,7.73-3.86V69.33a23.72,23.72,0,0,1-3.34.31q-3.66,0-3.65-2,0-.83,2-1.78l5-1.88V60.87a3.35,3.35,0,0,0-.63.21,15.72,15.72,0,0,1-4.7,1.15,6.76,6.76,0,0,1-3.55-.94q-1.36-.63-1.46-1.25c0-.28.17-.42.52-.42q2.61,0,7.62-3.24a13.47,13.47,0,0,1,2.19-1.15V53.88a21.29,21.29,0,0,0-.31-3.13,22,22,0,0,1-4.7.94q-5.22-.1-5.32-3.24,0-.83,2.82-1.67A158.49,158.49,0,0,1,284.92,43a40.87,40.87,0,0,0,5.53-.83C291.43,42.11,292.13,42.08,292.54,42.08ZM252.45,16.6a22.87,22.87,0,0,0,6.16.94q10.86,0,25.68-7.2a21,21,0,0,1,5.64-2.51,17.45,17.45,0,0,1,5.64,1.67q2.61.94,2.71,2.92,0,3.55-4.18,3.76A74.86,74.86,0,0,0,274,20,32.23,32.23,0,0,1,263.62,23a16.06,16.06,0,0,1-8.14-2.3Q252,18.9,252,17.54,252,16.6,252.45,16.6ZM257,53a10.48,10.48,0,0,1,3.24.42q3,1.15,4.7,5.12a26.35,26.35,0,0,1,2,8.25Q267,71,265.81,71a4.15,4.15,0,0,1-3.34-2q-1.36-1.77-2.82-9a12.91,12.91,0,0,0-2.71-4.28,3.13,3.13,0,0,1-1.15-1.88Q255.79,53,257,53Zm8.77-53a29.35,29.35,0,0,1,4.91.73,19.23,19.23,0,0,1,7.94,3.45q2.4,2.09,2.5,4.18-.21,4.28-3.76,4.59-2,0-3.55-3a30,30,0,0,0-7.31-8.56q-.73-.63-.73-.94Zm.52,87.29,1.15-.21q5.12-1.15,9.29-1.78-.21-2.3-.42-6.79a15.12,15.12,0,0,0-5.12,2.3q-4.38,2.61-4.8,5.64A2.18,2.18,0,0,1,266.34,87.29ZM280.22,49.7a8.07,8.07,0,0,1,.94,3.65,9.2,9.2,0,0,1,2.19-.31q4.17,0,5.22,2a11.66,11.66,0,0,0,.42-1.88,17.54,17.54,0,0,0,.52-2.71q0-1.57-1.15-1.57A58.83,58.83,0,0,0,280.22,49.7Zm.84,10v2.51q3.76-1.36,6.06-2.09V60a3.41,3.41,0,0,1,.1-.84,3.11,3.11,0,0,1-.52.1A37.17,37.17,0,0,0,281.06,59.72Z"/><path d="M377.79,16.18a6.52,6.52,0,0,1,3.86,1,5,5,0,0,1,2,4q0,2.61-3.24,4a24.76,24.76,0,0,1-9,2q.42,2.82.63,7.52a16.58,16.58,0,0,1,5.22-.94q3.34,0,3.34,3.34,0,3-3.86,15.45a114.91,114.91,0,0,1-5.53,12.95q4.39-4.7,8.67-10c.21,0,.31.14.31.42q-6.06,14.31-12.32,22.24-5,6.68-7.62,6.68-4.07,0-4.18-6,0-1.46,3.86-7.1,2.19-3.45,4.59-7.93-13.05-7.41-13.05-10.34,0-5.43,10.86-13.36,2.09-1.57,3.76-2.61-.1-6.89-.21-10.65a22.09,22.09,0,0,1-8.14-2.4q-3-1.46-3-3.24,0-.42,1.36-.42,8.77,0,12.42-2.09A18.83,18.83,0,0,1,377.79,16.18ZM366.2,45.42q-1.15.63-2.4,1.46-8.67,4.6-8.67,6.58,0,2.72,10.44,8.14l.73-1.67Q366.3,51.58,366.2,45.42ZM419.55,30a12,12,0,0,1,4.8,1.15q2.19,1.25,2.19,3,0,2.3-1.67,2.61a67.92,67.92,0,0,0-12.53,4.49v.42q0,2.92-2.4,8.87a7.92,7.92,0,0,1,2.5,1.88q2.51,3,2.51,8.46a39.06,39.06,0,0,1-.94,9q-.31,3.24-.31,6.16,0,3.86,2,5.53,2,1.88,8.67,1.88,5.85,0,8-3.65,1.88-2.61,2.61-11.49.1-1.88.31-1.88,1.46,0,4.18,3.13a11.09,11.09,0,0,1,2.61,6.89,13.41,13.41,0,0,1-2.92,9q-3.24,4-9.4,4-11.38,0-17.44-3.86a10.26,10.26,0,0,1-4.59-8.67,58.32,58.32,0,0,1,.63-6,72.44,72.44,0,0,0,.73-10.44,7.89,7.89,0,0,0-1.25-4.8l-.1-.1a13.66,13.66,0,0,1-.73,1.77q-8.14,17.33-14.2,23.49Q387,86,383.63,86q-3.13,0-3.45-3.45.42-3.65,1.25-3.76a.9.9,0,0,1,.94.73q1.15,1.46,2,1.46,3.45,0,11-12.84a79.8,79.8,0,0,0,10-23.07,2.44,2.44,0,0,0-.52.31q-7.73,4.91-10.44,5a5.14,5.14,0,0,1-4.28-2.19,6.47,6.47,0,0,1-1.46-3.55,1.2,1.2,0,0,1,1.15-1.25q7.1-1.15,26.1-11.8Q418.4,30,419.55,30Zm-.42-20.78a7.06,7.06,0,0,1,3.86.94,5.25,5.25,0,0,1,1.88,4.07,4.21,4.21,0,0,1-2.61,3.86,19.15,19.15,0,0,1-7.52,1.88q-7.62,0-11.59-2.3-2.4-1.57-2.4-3c0-.28.42-.42,1.25-.42q6.89,0,9.81-2.4A12.21,12.21,0,0,1,419.13,9.19Z"/><path d="M443.34,66.11l-.14-.48c.63-.19,1.06-1.06,1.19-2.39a13.85,13.85,0,0,0-.62-5c-1.18-4-3.29-6.27-4.51-5.91h0l-.14-.48,2.72-.81.1.06a12.25,12.25,0,0,1,4.27,14.07l0,.12-2.82.83Zm-3-14.13c1.43.69,3,3,3.88,6.1a14.31,14.31,0,0,1,.64,5.22,4.78,4.78,0,0,1-.57,2l1.46-.43a11.71,11.71,0,0,0-4-13.3Z"/><path d="M442.93,66.17c-1.1,0-2.4-1.19-3.49-3.25l-.27-.51,3.27.9a8.75,8.75,0,0,0-2.61-8.82l-2.23,2.45,0-.58c-.17-2.5.41-4.19,1.55-4.53,1.7-.5,3.95,2.25,5.13,6.25h0a14.31,14.31,0,0,1,.64,5.22c-.15,1.57-.7,2.57-1.54,2.82A1.44,1.44,0,0,1,442.93,66.17Zm-2.76-3c1,1.73,2.2,2.67,3,2.43.63-.19,1.06-1.06,1.19-2.39a13.85,13.85,0,0,0-.62-5h0c-1.18-4-3.29-6.28-4.51-5.91-.79.23-1.25,1.55-1.22,3.42l1.75-1.92.18.15c4.78,3.92,2.9,9.69,2.88,9.75l-.08.22Z"/><path d="M442.77,63.92l-6.3-1.73.2-.2-1.07-3.6,4.17-4.58.18.15c4.78,3.92,2.9,9.69,2.88,9.75Zm-5.62-2.06,5.28,1.45a8.75,8.75,0,0,0-2.61-8.82l-3.66,4Z"/><path d="M434,65.7,434,65a10.63,10.63,0,0,0-2.33-7.48l-.48-.6,4.86,1.34,0,.14,1.11,3.75-.11.1Zm-1.45-7.92a11.06,11.06,0,0,1,2,6.54L436.67,62l-1-3.35Z"/><path d="M431.14,69.22l-.14-.48h0c1.15-.34,1.64-3.23.52-7a13.1,13.1,0,0,0-2.09-4.3c-.78-1-1.57-1.45-2.16-1.28l-.14-.48h0l2.57-.76.1.06a11,11,0,0,1,2.28,2.19A11.13,11.13,0,0,1,434.52,65a13.62,13.62,0,0,1-.67,3.29l0,.12Zm-2.78-13.37a4.6,4.6,0,0,1,1.46,1.29A13.58,13.58,0,0,1,432,61.61c.85,2.89.84,5.51.08,6.81l1.34-.4a13.08,13.08,0,0,0,.61-3,10.63,10.63,0,0,0-2.33-7.48h0a11.09,11.09,0,0,0-2.07-2Z"/><path d="M430.74,69.28a3.26,3.26,0,0,1-2.29-1.5,15.08,15.08,0,0,1-2.79-9.41c.14-1.49.66-2.44,1.47-2.68s1.76.27,2.69,1.45A13.58,13.58,0,0,1,432,61.61h0c1.12,3.79.74,7.14-.86,7.61A1.38,1.38,0,0,1,430.74,69.28Zm-3.21-13.14a.89.89,0,0,0-.25,0c-.59.17-1,1-1.11,2.24a14.58,14.58,0,0,0,2.68,9c.78,1,1.56,1.45,2.16,1.28,1.15-.34,1.64-3.23.53-7h0a13.1,13.1,0,0,0-2.09-4.3A2.85,2.85,0,0,0,427.53,56.13Z"/><path d="M464.29,61c-2.19,0-5.16-.83-8-4.26a7.13,7.13,0,0,1-2-4.71,2.88,2.88,0,0,1,.94-2.19,2.14,2.14,0,0,1,1.78-.38,3.59,3.59,0,0,1,2.14,1.37,29.91,29.91,0,0,0,9.52,8l.3.15-1.21,1.27A8,8,0,0,1,464.29,61ZM456.45,49.9a1.48,1.48,0,0,0-1,.32,2.39,2.39,0,0,0-.75,1.81,6.66,6.66,0,0,0,1.89,4.37c5.08,6,10.34,3.66,10.81,3.43l.66-.7a30.58,30.58,0,0,1-9.4-8,3.1,3.1,0,0,0-1.84-1.19A2.24,2.24,0,0,0,456.45,49.9Z"/><path d="M463.15,62.08a8.82,8.82,0,0,1-6.67-3.29c-1.72-2-3.31-4.15-3.35-6.73a3.43,3.43,0,0,1,1.12-2.87,3.25,3.25,0,0,1,2.68-.61,5,5,0,0,1,2.84,1.79,23,23,0,0,0,9.83,7.4l.36.13-3.35,3.52A10,10,0,0,1,463.15,62.08ZM456.23,49a2.63,2.63,0,0,0-1.67.56,3,3,0,0,0-.93,2.47c0,2.42,1.57,4.51,3.23,6.4A8.18,8.18,0,0,0,466.36,61l.31-.33c-1.93.56-6.26,1-10.42-3.92a7.13,7.13,0,0,1-2-4.71,2.88,2.88,0,0,1,.94-2.19,2.14,2.14,0,0,1,1.78-.38,3.59,3.59,0,0,1,2.14,1.37,30,30,0,0,0,9.36,7.93l.61-.64a23.83,23.83,0,0,1-9.69-7.43,4.48,4.48,0,0,0-2.56-1.61A2.86,2.86,0,0,0,456.23,49Zm.22.88a1.48,1.48,0,0,0-1,.32,2.39,2.39,0,0,0-.75,1.81,6.66,6.66,0,0,0,1.89,4.37c5.29,6.29,10.79,3.45,10.84,3.42l1-.51,0,0a30.43,30.43,0,0,1-9.69-8.16,3.1,3.1,0,0,0-1.84-1.19A2.24,2.24,0,0,0,456.45,49.9Z"/><path d="M440.78,92.28l-.15-.05c-.68-.23-1.08-.55-1.18-1a1,1,0,0,1,.24-.86l26.87-29.46.13,0a8.47,8.47,0,0,1,1.84.42l.35.13-.25.27Zm26-30.8L440,90.75a.49.49,0,0,0-.12.4c.05.2.3.39.71.55l27.36-30A8.64,8.64,0,0,0,466.75,61.48Z"/><path d="M471.69,58.42l-.16-.05a8.26,8.26,0,0,0-1.75-.37l-.48-.06,2-2.19h.11a1.93,1.93,0,0,1,1.81.74l.1.16Zm-1.37-.86a8.31,8.31,0,0,1,1.22.28l1.13-1.24a1.64,1.64,0,0,0-1.16-.36Z"/><path d="M442.36,94.06l-.13,0c-1.23-.21-1.92-.57-2.1-1.11a1,1,0,0,1,.23-.94l.16-.17,27.84-30.5.16.06a2.34,2.34,0,0,1,1.61,1.37l2.82-3c0-.19,0-.9-1.42-1.39l-.36-.12,1.79-2h.11a2,2,0,0,1,1.76.61,1.6,1.6,0,0,1,.21,1.34l-.05.1Zm26.14-32.15L440.73,92.33a.5.5,0,0,0-.12.44c.05.15.31.51,1.57.75l27.45-30.06.06-.2S469.87,62.47,468.51,61.91ZM472,58a2.14,2.14,0,0,1,1.36,1.29L474.58,58a1.08,1.08,0,0,0-.15-.84,1.5,1.5,0,0,0-1.24-.42Z"/><path d="M472.1,61.39l.3-1a.82.82,0,0,0-.16-.63c-.29-.42-1-1-3-1.19l-.5-.06,1-1h.13a9,9,0,0,1,1.91.4c2.09.73,1.74,2,1.72,2.05l-.06.1Zm-2.36-3.26a4.15,4.15,0,0,1,2.93,1.36,1.51,1.51,0,0,1,.18.38l.1-.11c0-.19,0-.9-1.42-1.39a8.14,8.14,0,0,0-1.68-.36Z"/><path d="M471.55,62l.31-1a.82.82,0,0,0-.16-.63c-.29-.42-1-1-3-1.19l-.5-.06,1-1h.12c1.78.2,2.93.68,3.42,1.43a1.3,1.3,0,0,1,.21,1l-.06.1Zm-2.36-3.26a4.14,4.14,0,0,1,2.93,1.36,1.51,1.51,0,0,1,.18.38l.1-.11a.87.87,0,0,0-.17-.58c-.28-.41-1-.94-2.92-1.17Z"/><path d="M471,62.54l.31-1a.82.82,0,0,0-.16-.63c-.28-.42-1-1-3-1.19l-.5-.06,1-1h.12c1.78.2,2.93.68,3.42,1.43a1.3,1.3,0,0,1,.21,1l-.06.1Zm-2.36-3.26a4.14,4.14,0,0,1,2.93,1.36,1.51,1.51,0,0,1,.18.38l.1-.11a.87.87,0,0,0-.17-.58c-.28-.41-1-.94-2.92-1.17Z"/><path d="M470.47,63.12l.31-1a.82.82,0,0,0-.16-.63c-.28-.42-1-1-3-1.19l-.5-.06,1-1h.12c1.78.2,2.93.68,3.42,1.43a1.3,1.3,0,0,1,.21,1l-.06.1Zm-2.36-3.27A4.14,4.14,0,0,1,471,61.22a1.5,1.5,0,0,1,.18.37l.1-.11a.87.87,0,0,0-.17-.58c-.28-.41-1-.94-2.92-1.17Z"/><path d="M469.92,63.69l.31-1a.82.82,0,0,0-.16-.63c-.28-.42-1-1-3-1.19l-.5-.06,1-1h.12c1.78.2,2.93.68,3.42,1.43a1.3,1.3,0,0,1,.21,1l-.06.1Zm-2.36-3.26a4.14,4.14,0,0,1,2.93,1.36,1.5,1.5,0,0,1,.18.38l.1-.11a.87.87,0,0,0-.17-.58c-.28-.41-1-.94-2.92-1.17Z"/><path d="M469.39,64.26l.29-1s.18-.85-1.33-1.41a8,8,0,0,0-1.73-.39l-.64-.08,1-1h.12c1.78.2,2.93.68,3.42,1.43a1.3,1.3,0,0,1,.21,1l-.06.1ZM467,61a7.89,7.89,0,0,1,1.5.37,2.34,2.34,0,0,1,1.61,1.37l.1-.11a.87.87,0,0,0-.17-.58c-.28-.41-1-.94-2.92-1.17Z"/></g></g></svg>