<svg xmlns="http://www.w3.org/2000/svg" viewBox="0 0 202.55 62.28"><title>bambooword</title><g id="圖層_2" data-name="圖層 2"><g id="圖層_1-2" data-name="圖層 1"><path d="M12.78,9a5.18,5.18,0,0,1,3.9,2.19q1.64,2.46,1.64,7.31A22.29,22.29,0,0,1,15.86,27q6.42-2.73,9.23-2.73,2.12,0,2.19,1.44,0,4.1-11.55,6a17.42,17.42,0,0,1,2.39,5.88q1,3.08,1.64,3.08,1.37,0,3.76-5.2a.48.48,0,0,1,.55.55,40.39,40.39,0,0,1-1,9.71q-1.91,5.33-4.24,5.33-1.5,0-2.8-7.59A103.16,103.16,0,0,0,13.6,32l-.82.14a25,25,0,0,1-8.41,7.52A7.74,7.74,0,0,1,.55,41.22c-.37,0-.55-.16-.55-.48A32.4,32.4,0,0,0,9.5,28.92a32.63,32.63,0,0,0,3.28-14.42,18.45,18.45,0,0,0-.75-5Q12,9,12.78,9ZM39.31,2.73a9.59,9.59,0,0,1,4.85,1.44,4.94,4.94,0,0,1,2.32,4.31q0,1.91-7.59,14.08,3.69-1.37,7.38-3.08,4.1-2.26,5.95-2.26a7.2,7.2,0,0,1,3.35,1.37q1.78,1.3,1.78,2.19t-1.85,1L45,24.27a6.81,6.81,0,0,1,2.26,3.62A53,53,0,0,1,48.88,42,37.56,37.56,0,0,1,46.76,55.1q-2.05,5.33-4.44,5.33a3,3,0,0,1-2.67-1.71A6.12,6.12,0,0,1,38.83,56q0-.75,1-.75a3.05,3.05,0,0,0,3.14-1.78q1.5-2,1.64-10.25a104,104,0,0,0-.89-13.81A6.53,6.53,0,0,0,41,25.22l-5.74,1.3a8.17,8.17,0,0,1-2.32-.41,1.39,1.39,0,0,1-.41-1q0-.68,1-1h.07Q39,11.35,39,8.48q0-2.26-1-2.94a3.31,3.31,0,0,1-.89-1.23Q37.12,2.8,39.31,2.73Z"/><path d="M92.08,12a6.35,6.35,0,0,1,4.24,1.5,4.36,4.36,0,0,1,1.78,3.14q0,3.28-1.91,3.83-1.09.21-4.58,3.49,2.19.14,2.19,1.71,0,1.91-4.1,2.94-2.53.55-4.24.75-.34,4.44-.89,9.23,2.19-1.23,4.58-2.67a16.2,16.2,0,0,0-2.26-3.21c0-.18.11-.27.34-.27A11.85,11.85,0,0,1,93,34.79q3.49,2.26,3.49,4.24a2.34,2.34,0,0,1-2.46,2.46q-2,0-3.21-2.6l-.75-1.37q-.48.62-1.09,1.3a62.29,62.29,0,0,1-10,9q-3.35,2.46-4.37,2.46-2.46,0-2.73-4.31,0-1.5,1.16-1.71a8.11,8.11,0,0,0,3-.75q1.5-.75,4.85-2.67l.34-11.21a4.28,4.28,0,0,1-1.57-.55q-1.09-.82-1.16-1.23t1.16-.68a8.06,8.06,0,0,0,1.64-.34l.21-8.68-2,.55a9.56,9.56,0,0,1-1.64.41q-.75,0-.82-.55t1.5-1.37a16,16,0,0,1,3-1.85l.21-8.82a5.49,5.49,0,0,0-.89-2.73q0-.34,1.44-.48a4.77,4.77,0,0,1,2.87,1.16,4.47,4.47,0,0,1,1.44,3.49q0,2.46-.07,5.4A20,20,0,0,1,92.08,12Zm-20,6.77a1.76,1.76,0,0,1,1.5.75q3.14,4.58,3.14,6.7,0,3.28-2.19,3.28a2.34,2.34,0,0,1-1.85-1.37,6,6,0,0,1-.89-3.08Q71.85,23,72,20A4.25,4.25,0,0,1,72.12,18.8Zm14.29-1.91q-.21,3.76-.55,7.93L92.08,17q0-.89-.55-.89A22.68,22.68,0,0,0,86.41,16.88ZM112.86,10a9.24,9.24,0,0,1,4.65,1.09q1.71,1,1.71,1.91,0,1.3-2.46,1.44t-5.13.41q-.07,1.09-.21,2.26A4.07,4.07,0,0,1,112,17a7,7,0,0,1,3.42.75q1.3.68,1.3,1.37,0,1.09-2,1.16a31.69,31.69,0,0,0-3.62.48q-.14,1.57-.27,3.08,7.31-2.26,9.91-2.26a7.53,7.53,0,0,1,4.58,1.64q2,1.57,2,2.8t-3.28,1.3a17.66,17.66,0,0,1-3.83-.68A12,12,0,0,0,117,26a35.53,35.53,0,0,0-9.43,1.57Q95,31.17,93.24,31.17t-1.71-.62q0-.27.89-.48,9-3.28,15.31-5.33-.07-1.71-.14-3.14a29.27,29.27,0,0,0-3,1.09,7.76,7.76,0,0,1-2.87.82q-1.09,0-1.16-.55,0-.14.48-.34,4-2.12,6.43-3.49-.21-1.91-.27-3.62-1.57.27-3.08.62a16.06,16.06,0,0,1-3.55.55q-1.23,0-1.3-.89s.16-.16.48-.34q4.44-1.91,7.38-3.14-.27-6.15-.27-8.27a2.48,2.48,0,0,0-.75-2.12,2.19,2.19,0,0,1-.55-.89q0-1,1.57-1a6.74,6.74,0,0,1,3.55,1.09,3.83,3.83,0,0,1,1.64,3.21q0,1.37-.34,6A4.73,4.73,0,0,1,112.86,10Zm-9.71,22.49a24.11,24.11,0,0,1,2.94-2A9.81,9.81,0,0,1,110.74,29a7.11,7.11,0,0,1,5.13,1.71,8,8,0,0,1,1.91,5.61A135.94,135.94,0,0,1,119.49,53a14.36,14.36,0,0,1-1.44,7,3.39,3.39,0,0,1-3,2.26q-1,0-1.78-2.19a45.89,45.89,0,0,0-2.53-5.4c0-.41.18-.62.55-.62h1.57q1.44,0,1.44-1.85,0-3.49-2-19.21,0-1-2.46-1a20.93,20.93,0,0,0-4.79,1.3q-.55.21-1,.34a3,3,0,0,1,.07.55q-.07,1-.27,3.21,5.6-2.6,6.9-2.67,1.57,0,1.57,1.3,0,1-1.78,2.87-4.1,4.38-6,5.33a5.44,5.44,0,0,0,2.19-1,5.93,5.93,0,0,1,3.76-1.5,2.68,2.68,0,0,1,1.44.34,2.24,2.24,0,0,1,.68,1.64q0,.89-1.23,1.44a10.57,10.57,0,0,1-3.55.75,19.25,19.25,0,0,1-4.72-.48q-.27,3.35-.55,7a2.12,2.12,0,0,1-2.26,1.3q-1.23-.14-1.3-2.12,2-11.42,3-17.23Q102.47,32.61,103.15,32.54Zm0,11.89h.27a17.5,17.5,0,0,0,3.42-4.1A9,9,0,0,0,108,38.49v-.21a6.35,6.35,0,0,1-3,1,5.72,5.72,0,0,1-1.37-.14Q103.43,41.56,103.15,44.43Z"/><path d="M159.07,19.69q3.28,0,3.28,3-.07,2.26-5.26,7.45a1.84,1.84,0,0,1,.14.68q0,1.3-1.91,1.91a21,21,0,0,1-2.39,1q-.34,3.21-.75,6.63,1-.89,2.12-1.71a4.26,4.26,0,0,1-.07-.68q0-1.71.55-1.71a4.67,4.67,0,0,1,2.67.89,4.3,4.3,0,0,1,1.91,3.55q0,2.19-.82,2.19-1.09,0-3.08-2.05a4.19,4.19,0,0,0-.34-.41,10.76,10.76,0,0,1-.75,1.37,56.71,56.71,0,0,1-7.59,9.64q-2.53,2.6-3.21,2.6-2.73,0-3-4.85,0-1.78,1-2a4.92,4.92,0,0,0,2.39-.75q1.5-1,5.06-3.69.07-4,.14-7.86a4.27,4.27,0,0,1-.68.07q-2.19,0-2.19-1.16a1.46,1.46,0,0,1,.68-1l2.26-1.3V26a9.74,9.74,0,0,1-2.46.48q-1.91-.14-2.19-1.09,0-.62,1.37-1,1.78-.89,3.28-1.5.07-4.51.07-9a10.58,10.58,0,0,0-.55-3.21A6.4,6.4,0,0,1,148.13,9q0-1.71,3.35-1.71a4.49,4.49,0,0,1,2.32.82A2.41,2.41,0,0,1,155,10.32q0,2.46-.75,10.53A19.33,19.33,0,0,1,159.07,19.69ZM141.3,24.81q.75,0,1.23,1,2.6,5.61,2.6,8.07,0,2.73-1.85,2.73a2,2,0,0,1-1.71-1.16,5.25,5.25,0,0,1-.75-2.67q0-2.67.21-6.36Q141.16,24.81,141.3,24.81Zm12.58-.62q-.21,2.05-.41,4.24l3.76-5.2c0-.18-.21-.27-.62-.27ZM169.8,10.94q5.06,0,5.2,5.13,0,1-1.71,2.87-4,5.67-4,7.31a.59.59,0,0,0,.55.68q2.67.07,2.73,3.9A36.56,36.56,0,0,1,171.31,40q3.35,1.71,6.43,3.62a49.43,49.43,0,0,0,21.81,7.18q3,.21,3,1.71,0,1.23-2.32,2.19a23.73,23.73,0,0,1-7.72,1.09,10.9,10.9,0,0,1-8.2-3.42q-3.21-3.21-13.95-9.84a13.79,13.79,0,0,1-5,6.36,11,11,0,0,1-5.74,1.64.24.24,0,0,1-.27-.27q5.81-4.72,7.52-9.64l.07-.14q-1.78-1.09-3.55-2.12-2.6-1.57-2.6-2.87V35q3.49,1.37,6.84,3.08a26.75,26.75,0,0,0,.75-6.08,1.07,1.07,0,0,0-.55-1,4.82,4.82,0,0,1-2.46-4.51,9.72,9.72,0,0,1,2.73-6.84,10,10,0,0,1-3,.55q-3.28,0-3.28-3,0-.68.82-.89a12.44,12.44,0,0,0,5.74-4.65A1.82,1.82,0,0,1,169.8,10.94ZM190,7a4.26,4.26,0,0,1,3.14,1.09,3.06,3.06,0,0,1,1.44,2.8q0,1.37-2.6,3.28a22.27,22.27,0,0,1-4.51,2.6,8.47,8.47,0,0,1,1.57,1,4.71,4.71,0,0,1,1.64,3.21,20.41,20.41,0,0,1,3.35-.27q2.73,0,2.73,1.91,0,3.56-6.22,5.33l-.21.14q-.34,3.21-1,7.18a29.79,29.79,0,0,1,4.72-.34q3,0,3,2.19,0,1.91-5.26,2.94A77.29,77.29,0,0,1,182,41.22a6.57,6.57,0,0,1-3.28-.89q-1.5-1-1.64-1.57t1.71-.62A38.73,38.73,0,0,0,185,36.5V29.26a36.22,36.22,0,0,1-6,.75,5.74,5.74,0,0,1-2.8-.75q-1.16-1-1.23-1.44,0-1,1.78-1.23a30.33,30.33,0,0,0,8.07-3.42A.78.78,0,0,0,185,23V20.51a5.64,5.64,0,0,0-.75-2.73,18.21,18.21,0,0,1-3.83.48q-1.16,0-1.16-.48a22.79,22.79,0,0,0,5.61-4.44q2.87-3.14,2.87-5.4Q187.78,7,190,7Z"/></g></g></svg>