<svg xmlns="http://www.w3.org/2000/svg" viewBox="0 0 177.49 80.4"><title>資產 4</title><g id="圖層_2" data-name="圖層 2"><g id="圖層_1-2" data-name="圖層 1"><path d="M18.06,21.45a3,3,0,0,1,.09-.73,59,59,0,0,0,1.65-9.35,12.51,12.51,0,0,0-.92-4.68,8.17,8.17,0,0,1-1-2.66q0-1.1,2.48-2.57A5.79,5.79,0,0,1,23.47,0q3.39,0,3.67,7.33A61.48,61.48,0,0,1,25.3,19.07q7,.18,7,4.77-.18,2.66-3,2.66a26.21,26.21,0,0,0-5.5.55A44.17,44.17,0,0,0,23,33.74v4.68l4.31-3.94q1.47-1.74,2.66-1.74c.49,0,.73.12.73.37q-4,6.05-7.52,11.09.09,7.43.28,13.11.36,7.15.37,13.11a14.09,14.09,0,0,1-1.65,7.43Q20.72,80.4,19,80.4q-2.29,0-3.48-3.58Q11.83,65.36,9.72,63.17A4.64,4.64,0,0,0,6.88,61q-1.38-.28-1.37-1.1A8.14,8.14,0,0,1,7,55.28a137.86,137.86,0,0,1,9.9-10.73V34.1q0-2.38.18-4.68a38.41,38.41,0,0,0-4.13,2.38q-4,2.84-7.15,3a7.89,7.89,0,0,1-4-1Q.18,33.1,0,32.27a.65.65,0,0,1,.73-.73q3.76,0,11.09-6A33,33,0,0,1,18.06,21.45Zm-1.19,30.8a82.33,82.33,0,0,1-7.43,8q5.78,6.51,7.06,6.51.37,0,.37-1.74ZM48.41,4a7.25,7.25,0,0,1,4.77,2.11,6.72,6.72,0,0,1,2.57,5.59q0,10.18-.73,24.2,8.25-5.78,8.8-5.78a16.08,16.08,0,0,1,7.43,1.56q2.84,1.65,2.84,3.12,0,2.48-4.49,2.66A55.07,55.07,0,0,0,56.38,40a6.37,6.37,0,0,1-1.65.55q-.82,11.64-2,25.3,11.46-2.75,15.4-2.75A15.2,15.2,0,0,1,76.92,66q4,3,4,5.13-.18,2.38-6.14,2.57a36.34,36.34,0,0,1-7.7-1.38,22.37,22.37,0,0,0-6.33-1.19,88.79,88.79,0,0,0-13,1.19q-17.51,2.48-19.89,2.48-3.3,0-3.3-1.1c0-.18.43-.34,1.28-.46q4.68-1.38,8.89-2.57L34,46.57a8.93,8.93,0,0,0-1.38-4.4q0-.73,2.11-1a7.5,7.5,0,0,1,4.68,1.92,6.85,6.85,0,0,1,2.29,5.41,197.43,197.43,0,0,1-1.47,20.72l7.06-2V9.63a9.55,9.55,0,0,0-1.19-4.4Q46.11,4.4,48.41,4Z"/><path d="M114,2.29A8,8,0,0,1,118.72,4a5.38,5.38,0,0,1,2.29,4,.75.75,0,0,1-.18.55q6.78,1.47,8.89,3.58a8.18,8.18,0,0,1,2.2,5.13q0,1.38-2.84,1.38-3,0-10.08-5a8.31,8.31,0,0,1-.92,1.28q-9.81,11.19-17.51,15-4.86,2.75-6.69,2.75-1.19,0-1.19-.83a60.27,60.27,0,0,0,14.48-14.76q5.59-8,5.59-13.2Q112.76,2.29,114,2.29Zm6.14,20.44q4,0,4,3,0,2.2-3.48,3.39-2.75.73-4.4,1a14.62,14.62,0,0,1,.28,1.93,6.86,6.86,0,0,1,1.47-.18q5.78.09,5.78,4a2.16,2.16,0,0,1-2.48,2.29,23.64,23.64,0,0,0-4.22.37q.09,1.65.09,3.12a5.17,5.17,0,0,1,1.19-.18q2.93,0,2.93,2.48t-3.85,8.71a6.75,6.75,0,0,1-.92,1.19c-.06.24-.12.46-.18.64q3.39-3.12,7.43-6.88c.24,0,.37.15.37.46q0,2.29-2.57,6.23-4,6.51-13,15.4-4.4,4.31-5.59,4.31-3,0-3.39-5.78,0-1.74,1.1-1.93a8.79,8.79,0,0,0,1.47-.27,76,76,0,0,0,8.34-12.56q.09-2.48.09-4.58a6,6,0,0,0-.92.55A25,25,0,0,0,105,53.17q-1.19,1.1-1.65,1.1-2.38-.09-2.57-2.11,0-1,1.93-2.38a52.64,52.64,0,0,1,8.07-5.13q0-2.38.09-4.22a21.82,21.82,0,0,0-2.11.83,13.17,13.17,0,0,1-5.41,1.65,7.33,7.33,0,0,1-3.48-.83q-1.37-.64-1.56-1.28a.49.49,0,0,1,.55-.55q2.93,0,8.62-4a33,33,0,0,1,3.58-2q.09-2.84.18-4.4a13.36,13.36,0,0,1-1.28-.55q-2-1.37-2.2-2.11,0-.64,1.19-.73a21.64,21.64,0,0,0,5.32-2.11A10.68,10.68,0,0,1,120.19,22.74Zm23.1-22a5.87,5.87,0,0,1,4.22,1.93,6.51,6.51,0,0,1,2.11,5,13.59,13.59,0,0,1-.73,4.31A47.34,47.34,0,0,1,156,19.25q6,7.7,11.73,10.73,6.14,3.21,8.25,5.59a5,5,0,0,1,1.47,2.93q-.18,2-4.77,2.29A17.67,17.67,0,0,1,166,39.15a29.93,29.93,0,0,1-8.8-8q-4.12-4.86-10-15.31a15.53,15.53,0,0,1-1,2,106.68,106.68,0,0,1-10,15.68,52.45,52.45,0,0,1-8.71,9.08,6.86,6.86,0,0,1-4,1.83q-1.38,0-1.37-.46,4.4-3.94,11-15.4A91,91,0,0,0,140.54,12a23,23,0,0,0,1.74-8V1.93C142.28,1.13,142.62.73,143.29.73Zm8.07,44.1a15.25,15.25,0,0,1,6.78,1.38q2.48,1.38,2.48,3,0,6.51-6.05,13.2a16.57,16.57,0,0,1-4.86,3.85,15.69,15.69,0,0,1,2.75,2.48,10.49,10.49,0,0,1,2.93,6.42q-.09,2.47-2.11,2.57-2.84,0-5-3.58a37.22,37.22,0,0,0-9.81-10.63q-1-.73-1-1.19V62a24.48,24.48,0,0,1,5.78,1.28q1.65.64,2.84,1.19,7.15-8.8,7.15-13.48,0-2.11-.73-2.11-5.32,0-12,4-6.87,4.4-8.25,4.4-3.39,0-3.67-1.56,0-.83,8.53-5.78Q145.77,44.83,151.36,44.83Zm-.73-12.93q2.66,0,2.66,1.93T148.88,37a50.78,50.78,0,0,1-8.07,1.19,5.43,5.43,0,0,1-2.75-.73q-1.19-.73-1.28-1.1,0-.73,1.28-.83a28,28,0,0,0,5.87-2.11A13.38,13.38,0,0,1,150.63,31.9Z"/></g></g></svg>