<svg xmlns="http://www.w3.org/2000/svg" viewBox="0 0 123.94 58.24"><title>ggorword</title><g id="圖層_2" data-name="圖層 2"><g id="圖層_1-2" data-name="圖層 1"><path d="M17,1.85q2.12.07,2.19,1.91,0,2.19-2.67,5.81T14,13.95a1.38,1.38,0,0,0,.27.75A10.83,10.83,0,0,1,15.59,20q0,5.47-1.5,8.34-1.23,2-2.32,2t-1.5-1.44q-1-2.05-1.71-3.42,0-.41.27-.41Q10.53,25,11,24.13t.48-3.62a20.86,20.86,0,0,0-.27-4A2.75,2.75,0,0,0,10,14.7a1,1,0,0,1-.48-.75q0-1.44,3.9-7.18Q5.19,10.39,3.28,10.6a3.54,3.54,0,0,1-2.12-.75A2.06,2.06,0,0,1,0,8.2q0-.89,1.37-1a38.67,38.67,0,0,0,11.76-4A8.83,8.83,0,0,1,17,1.85ZM2.73,16.68q1.23,0,2.39,1.71A8.23,8.23,0,0,1,6.56,23,19,19,0,0,1,6,26.32a93.68,93.68,0,0,0-1,15q0,1.91.55,1.91.34,0,.68-.55L9,38c.36,0,.55.09.55.27q-1,5.26-2.26,9.64a31.76,31.76,0,0,0-1,4.24Q6,54.07,5,54.07q-2,0-3.21-2.87a21.51,21.51,0,0,1-1.23-8A110.24,110.24,0,0,1,1.71,29.26a87.33,87.33,0,0,0,.82-9,24.08,24.08,0,0,0-.27-3Q2.26,16.68,2.73,16.68Zm21.05,1.57c.36,0,.55.09.55.27a90.93,90.93,0,0,0-3.28,14.77.73.73,0,0,1-.82.55,2.88,2.88,0,0,1-1.57-.62q-.89-.62-.89-1.23a14,14,0,0,1,1-3.83,35.26,35.26,0,0,1,3-7.52Q23,18.46,23.79,18.25Zm11.48,7.18a7.54,7.54,0,0,1,3.49,1.3q1.91,1.09,2,2.26,0,1.85-2.46,4a17.91,17.91,0,0,1-6.77,3.76,35.83,35.83,0,0,1-.41,5.81Q31,44.78,31,46.76q0,1.23,1.91,1.78t8.07.68q6.56,0,9-2.12,2.19-1.44,2.94-6.36.14-1.16.41-1.16.75,0,2.19,2.12a8.35,8.35,0,0,1,1.44,4.51,7.42,7.42,0,0,1-2.6,5.88q-2.94,2.6-8.41,2.6-9.91,0-15.18-2.26-4-2-4-5.2,0-.82.27-3.9.27-3.35.27-7A4.32,4.32,0,0,0,26.25,33a2.45,2.45,0,0,1-.75-1.91q0-1.85.75-1.85a4.71,4.71,0,0,1,3.35,1.57,7.49,7.49,0,0,1,1.78,3.83,28.9,28.9,0,0,0,2.26-2.53q2.19-2.8,2.19-3.42a2.14,2.14,0,0,0-.48-1.09,1.76,1.76,0,0,1-.55-1.09Q34.79,25.43,35.27,25.43ZM46.76,10.6a9.1,9.1,0,0,1,4.79,1.3,3.59,3.59,0,0,1,1.78,2.87q-.14,2.32-1.91,2.32a7.8,7.8,0,0,0-3.14,1.3q-5.74,3.15-6.7,3.14h-.27q5-4.44,5-6a1.37,1.37,0,0,0-.55-1.16A6.58,6.58,0,0,0,43,13.95,17,17,0,0,0,36,16q-4.17,2.26-5.33,2.26-2.26,0-2.46-.75,0-.41,1.37-1.16a63.06,63.06,0,0,1,7.93-3.83A24.46,24.46,0,0,1,46.76,10.6Zm-14.49-9a13.89,13.89,0,0,1,6.15,1.3Q41.29,4.1,41.29,6q0,1.57-1.3,1.57-4.17,0-5.4.89A2,2,0,0,1,33.43,9V8.75A6.43,6.43,0,0,0,35,5.47q0-.75-2.12-2.12-1.09-.75-1.09-.89Q31.79,1.57,32.27,1.57Z"/><path d="M87.29,13.06a4.44,4.44,0,0,1,2.94.82,3.34,3.34,0,0,1,.82,2.46q0,3.76-7.66,9.57l1.09-.48a3.77,3.77,0,0,1,1.23.14.7.7,0,0,1,.48.68Q86,29.46,82.3,31a20.47,20.47,0,0,1-4.1,1.5q-.21,3.35-.48,7,2.46-1.44,5.26-3.14a13.74,13.74,0,0,0-1.23-2.12,1.69,1.69,0,0,1-.27-.68v-.27a7.63,7.63,0,0,1,2.05.48,7.53,7.53,0,0,1,3.21,2.05,3.85,3.85,0,0,1,1,2.46q-.14,2.8-2.46,3-.68,0-1.16-1.85a11.8,11.8,0,0,0-.48-1.5,6.68,6.68,0,0,1-1.16,1.5,57,57,0,0,1-9.84,9.09q-3.35,2.53-4.24,2.53-2.46,0-2.73-4.58,0-1.5,1.09-1.71a8.11,8.11,0,0,0,3-.75q1.57-.75,4.92-2.73-.07-4.51-.07-8.27h-.21a1.72,1.72,0,0,1-1.23-.34c-.09-.09-.14-.16-.14-.21a4.35,4.35,0,0,1-.34-1.91A5.44,5.44,0,0,1,73.9,28l.68-.48q-.07-4.24-.07-7.59l-1.5.27q-2-.14-2.19-.89,0-.41,3.69-2.32-.07-6.77-.07-9.43a2,2,0,0,0-.82-1.91A1.71,1.71,0,0,1,73,4.85q0-1,1.71-1.09A6.12,6.12,0,0,1,78,4.85a3.65,3.65,0,0,1,1.57,3.08q0,1.71-.27,6.84A23,23,0,0,1,87.29,13.06ZM67,19.35q.82,0,1.3,1.16,2.8,6.77,2.8,9.78,0,3.28-2.12,3.28a2.61,2.61,0,0,1-2.12-1.37A6.71,6.71,0,0,1,66,29a65.91,65.91,0,0,1,.55-7.79Q66.79,19.35,67,19.35Zm12.1-.68q-.14,2.39-.34,5.2a70.05,70.05,0,0,0,5.74-6.36c0-.18-.07-.27-.21-.27Q81.21,18.12,79.09,18.66ZM93.52,4.58q.21,0,.68,1A41.93,41.93,0,0,0,97.75,14a12.17,12.17,0,0,1,1.5,5.67q-.14,2.87-1.3,3-1.91,0-3.42-3.28-1.71-4.31-1.78-11.83Q92.76,4.58,93.52,4.58Zm.82,43.2a3.9,3.9,0,0,1,2.39.82,4.59,4.59,0,0,1,1.78,3.62q0,3.55-1.44,3.55-1,0-2.53-2.19a5.19,5.19,0,0,1-1-3.08Q93.52,47.78,94.34,47.78ZM114.3,0q7.18,0,7.45,5.47a37.5,37.5,0,0,1-1.09,8.34,21.09,21.09,0,0,1-2.87,6.63q-1.3,1.91-2.6,1.91A2.48,2.48,0,0,1,112.72,20a7.91,7.91,0,0,1,1.09-2.6.71.71,0,0,0,.14-.27,40.69,40.69,0,0,1-4.85,3.62,14.11,14.11,0,0,1-1.5.89,4.41,4.41,0,0,1,.82.75,5.61,5.61,0,0,1,1,3.35q0,2.26-5.2,5.74a.24.24,0,0,0,.27.27,14,14,0,0,1,4.31-1.37q2.6-2.8,2.73-3.83,0-.55.27-.55A4.13,4.13,0,0,1,114,27.21a3.77,3.77,0,0,1,1.44,2.8A2.46,2.46,0,0,1,114,32a28.84,28.84,0,0,0-3,1.85q1.78.07,4.17,2.26t2.39,4.38a2.37,2.37,0,0,1-2.39,2.46q-1.23,0-2-2.6a5,5,0,0,0-.21-.62l-4.44,2.05Q110,43.82,110,48.19q0,5.74-.89,8-1,2.05-1.85,2.05-1.23,0-2.39-1.71a4.54,4.54,0,0,1-1.16-3,7.69,7.69,0,0,0,1.85-3.14,19.43,19.43,0,0,0,.89-6.36,10.79,10.79,0,0,0-.07-1.3q-4.92,2.05-6,2.05-2.67,0-2.67-3,0-1.09,1.44-1.64,1.16-.48,7.18-7l-3.14,2a5.45,5.45,0,0,1-2.8,1.16q-2.6,0-2.67-2.12T102,28.3q4.44-4,4.44-5.95a.2.2,0,0,0-.07-.14,7.44,7.44,0,0,1-2.94,1q-1.16,0-1.16-1.44,0-.82,3.35-4.17a17.33,17.33,0,0,1-.48-3.62,15.25,15.25,0,0,1-3.35.75q-2-.07-2-.82l5.2-2.73v-3a15.37,15.37,0,0,0-.14-1.85,30.47,30.47,0,0,1-5.33,1.23q-2.6,0-3-1.3.27-.48,1.85-.75,1.91-.68,4.58-1.91Q111.49.21,114.3,0ZM112,36.85a13.79,13.79,0,0,0-1.23-2.67V34q-2.53,1.85-6.22,4.72c0,.37.16.55.48.55Q105.89,39.31,112,36.85ZM108,5.47a8.12,8.12,0,0,1,.55,2.73v.89c.27-.14.52-.27.75-.41a4.41,4.41,0,0,1,2.53-1.09,2.42,2.42,0,0,1,2.73,2.73q0,1.23-3.76,5.2,2.39-.41,4.1-.75a27.42,27.42,0,0,0,1.37-9.3q-.14-1.16-2.26-1.16A30.26,30.26,0,0,0,108,5.47Zm.41,7.45q0,1.09-.07,2.05Q110,13.4,110,13.06c0-.36-.09-.55-.27-.55A13.33,13.33,0,0,1,108.42,12.92Zm9.16,33.56a6.8,6.8,0,0,1,4.31,1.5,4.93,4.93,0,0,1,2.05,4q0,1.3-1.16,1.3-4.24,0-5.61.82a1.93,1.93,0,0,1-1.16.62v-.34q1.85-1.85,1.85-3a10.86,10.86,0,0,0-.55-2.8,7.1,7.1,0,0,1-.27-1.3Q117,46.48,117.58,46.48Z"/></g></g></svg>