<svg xmlns="http://www.w3.org/2000/svg" viewBox="0 0 129.54 61.8"><title>ballword</title><g id="圖層_2" data-name="圖層 2"><g id="圖層_1-2" data-name="圖層 1"><path d="M20,0q1,0,2.94,2.26A7.39,7.39,0,0,1,25,7v.21q7.11,1.09,9.3,2.8t2.19,3.55q0,1.44-2.53,1.44Q31,15,23.79,11.28A39.23,39.23,0,0,1,19,18q-1.5,1.57-3,3.08,1.85-.55,4.38-1.57a14.58,14.58,0,0,1,6.22-1.16q2.12,0,2.12,1.57,0,1.85-4,2.8a45.13,45.13,0,0,1-7.45,1.09A4.1,4.1,0,0,1,14.83,23a1.55,1.55,0,0,1-.55-.41,36.32,36.32,0,0,1-13.67,8q-.62,0-.62-.21a80.17,80.17,0,0,0,15.24-14.9Q20,9,20,3A7.32,7.32,0,0,0,19.41.27C19.41.09,19.6,0,20,0Zm-12,32A9,9,0,0,1,10,32.2,4.78,4.78,0,0,1,13,34.59a13.09,13.09,0,0,1,1,2.39q1.91-1.23,2.67-1.64a1.32,1.32,0,0,1-.21-.68,2.38,2.38,0,0,1,.14-.75,7.85,7.85,0,0,0,.55-1.78,9.05,9.05,0,0,0,.14-1q0-.75-.55-.75a2.91,2.91,0,0,0-1.37.75q-.82,1.16-1.09,1.16-2.67-.14-2.73-1.71,0-.41.82-.82a18,18,0,0,1,4.31-2.19,7.22,7.22,0,0,0,1.5-.41,3,3,0,0,1,.55-.07,4.47,4.47,0,0,1,2.19,1.23,3.82,3.82,0,0,1,1.3,2.05,1.5,1.5,0,0,1-.34.82,6.74,6.74,0,0,0-.48,1.37A20.43,20.43,0,0,1,20,36.3l-.07.07a2,2,0,0,1,.07.48q0,1.3-1.85,2a30.52,30.52,0,0,1-3.08,1,1.28,1.28,0,0,1-.41.07,4.86,4.86,0,0,1,2.05,1,2.8,2.8,0,0,1,1.44,2.19,8.65,8.65,0,0,1-1.5,4.58q-.27.41-.48.75a5,5,0,0,1,2.26,1.3,4.42,4.42,0,0,1,1.09,1.71,12.76,12.76,0,0,1,2.05-3.55q4.17-6.22,4.17-9.09a8.8,8.8,0,0,0-1-2.53c0-.09,0-.14.07-.14q-1.16-.48-1.16-2.6a48,48,0,0,0,.89-4.85,1.57,1.57,0,0,1-1.23-1.37q0-.48,1-.89a25.58,25.58,0,0,1,5.47-2.19,8.56,8.56,0,0,0,1.85-.41,5.75,5.75,0,0,1,.75-.07A4.47,4.47,0,0,1,34.52,25a4.38,4.38,0,0,1,1.37,2.05,2,2,0,0,1-.82,1.3,9.09,9.09,0,0,0-.89,2q-2,5.26-2.46,5.74a2.08,2.08,0,0,1-1.3.48,1.68,1.68,0,0,1-1-.62q-1.5.14-2.67.34a9.32,9.32,0,0,1,1.78,1,3.49,3.49,0,0,1,1.91,3.08,10.22,10.22,0,0,1-.34,2.73,13.05,13.05,0,0,1,2.6,1.16A3.69,3.69,0,0,1,34.45,47q0,1.3-1.57,1.3A6.07,6.07,0,0,1,29.46,47a6.38,6.38,0,0,1-.82-.68,12.72,12.72,0,0,1-1.44,2.05q-3.9,4.38-6.7,4.38-.68,0-.82-.21-.07,1.23-1.57,1.23a3.58,3.58,0,0,1-2.32-1.3,9.52,9.52,0,0,1-1.23-1.91,27,27,0,0,1-6.77,6.9q-2.46,1.85-3.35,1.85c-.37,0-.55-.09-.55-.27a39.8,39.8,0,0,0,6.84-9.57Q13.4,44.37,13.4,41a2.74,2.74,0,0,1-2-1q-.82-.89-1.64-4.37A5.1,5.1,0,0,0,8.07,33.5q-.62-.62-.62-1Q7.45,32,7.93,32Zm18.39,1.44,2.39-.27v-.07a15.53,15.53,0,0,0,1.71-3.35,10.51,10.51,0,0,0,.48-1.91q0-.75-.48-.75a7.21,7.21,0,0,0-2.53.75,4.93,4.93,0,0,1-1.71,1v.62a24.36,24.36,0,0,0,.14,3.9C26.41,33.41,26.41,33.43,26.32,33.43Zm18-19.28q.34,0,1.37,2.26a10.3,10.3,0,0,1,1.37,5.2,15.62,15.62,0,0,1-.34,2.46,38,38,0,0,0-.27,4.58q0,2.05.62,7.45Q47.1,38,45.39,38,44,38,43.13,34.86a24.53,24.53,0,0,1-.68-4.79,34.19,34.19,0,0,1,1-5.61,24.86,24.86,0,0,0,1-5.88,13.87,13.87,0,0,0-.62-3.83A.54.54,0,0,1,44.37,14.15ZM57.15,3q1.09,0,2.26,1.71A11.53,11.53,0,0,1,60.7,10q0,2.67-.21,5.67-.34,4-.34,8.27t.34,12.92Q61,47.65,61,54.07a15.47,15.47,0,0,1-1,5.74,3.37,3.37,0,0,1-2.87,2q-1.5,0-4.65-6.29,0-.62,1.09-.82,2.87,0,2.73-4.58,0-11.76.62-42.25a18,18,0,0,0-.55-4Q56.4,3,57.15,3Z"/><path d="M113.2,7q6.29.14,6.29,4.72-.14,2.12-2.73,2.12A53.5,53.5,0,0,0,105.48,15a5.39,5.39,0,0,1,1,3.28q0,3.9-.21,8.82a15.75,15.75,0,0,1,3.21-.34q7.66,0,7.66,5.47,0,4.24-5.47,9.09a76.37,76.37,0,0,1-6.84,4.58q-.21,2.26-.41,4.44l.62-.14a66.65,66.65,0,0,1,14.15-1.57q4.65,0,6.7,1.57,2.32,1.57,2.39,5.26-.07,1.85-1.57,1.85-12.51-3.49-17.57-3.49A49.53,49.53,0,0,0,98.51,55,80.93,80.93,0,0,0,90,58,6.8,6.8,0,0,1,87,59.06a10,10,0,0,1-4.51-1.16q-1.78-1-1.78-1.57,3.62-1,6.84-2,2.87-2.53,13-10.73l.07-8.07-2.26,1.3q-6.84,4.17-7.52,9,0,1.78-1.09,1.78A2,2,0,0,1,88,46.28a4.16,4.16,0,0,1-.75-2.53q0-4.65,7.86-10.87a37.43,37.43,0,0,1,5.54-3.55l.07-12.44a2.58,2.58,0,0,0-.07-.62q-1,.34-1.85.62a26.37,26.37,0,0,1-7.66,1.71,7.45,7.45,0,0,1-3.83-1q-1.44-.62-1.64-1.3,0-.55.82-.55,4,0,12-4.17Q107.19,7.25,113.2,7ZM92.56,53Q96.8,52,100.42,51.2V48.6Q96.86,50.72,92.56,53Zm12.85-13.47a8.41,8.41,0,0,0,.89-.75q3.62-3.14,3.62-4.44,0-1.09-1.91-1.09a8.75,8.75,0,0,0-2.12.27Q105.68,36.44,105.41,39.58Zm13.81-4.31a16.18,16.18,0,0,1,7.11,1.85,5.64,5.64,0,0,1,3.21,4.58q-.14,3.15-2.6,3.14a13.77,13.77,0,0,1-4-.62q-2-.62-2.05-1.09,0-.21,1.64-.55t1.5-.89q0-.55-1.85-2.12-3.08-2.94-3.28-4A.24.24,0,0,1,119.22,35.27Z"/></g></g></svg>