<svg xmlns="http://www.w3.org/2000/svg" viewBox="0 0 132.82 62"><title>marblesword</title><g id="圖層_2" data-name="圖層 2"><g id="圖層_1-2" data-name="圖層 1"><path d="M19.07,4.31a6.13,6.13,0,0,1,3.28,1.57q2.19,1.57,2.19,2.6,0,2.05-2.39,3.76A20.42,20.42,0,0,0,17,17.09a1.53,1.53,0,0,1,1.16,1.23,3.75,3.75,0,0,1,.62,2.19q0,2.94-5.67,8.27-.82.82-.82,1c0,.37.07.55.21.55a5.15,5.15,0,0,0,1.78-.55A5.79,5.79,0,0,1,16.61,29Q20,29,20,33.29a32.7,32.7,0,0,1-1.85,9.91A26.46,26.46,0,0,1,12,53.66q-2.87,2.6-5,2.6a3.47,3.47,0,0,1-3.21-2.39,14.63,14.63,0,0,1-2-4.37v-.27q2.94,1.85,4.44,1.85A4.68,4.68,0,0,0,9.5,49.42q1.91-1.71,3.62-7.38Q15,35.75,15,34.18q0-.89-.82-.89a11.45,11.45,0,0,0-3.49.75,6.79,6.79,0,0,1-2.53.68Q6.08,34.73,6,32.2a5.62,5.62,0,0,1,1.3-1.85,49.46,49.46,0,0,0,5.26-7,38.41,38.41,0,0,1-5.74,3,13,13,0,0,1-5,1.57Q0,27.89,0,26.73q0-1,1.44-1.91,5.67-3.49,9.09-5.4,5.81-8.89,5.81-9.91A.48.48,0,0,0,15.79,9a8.43,8.43,0,0,0-2.53.75,6.69,6.69,0,0,1-2.32.68q-3.69,0-3.9-.89,0-.27,1-.75a18.18,18.18,0,0,1,5.33-2.6,44.07,44.07,0,0,0,4.58-1.37A2.17,2.17,0,0,1,19.07,4.31Zm7.45,18.12a7.86,7.86,0,0,1,2.73.41,6.6,6.6,0,0,1,3.83,4q3.62-1.16,6.15-1.85A21.49,21.49,0,0,0,38.83,22q-2.53.55-3.55.68-2.87,0-3.28-1.44.21-.48,1.57-.68A28.6,28.6,0,0,0,37.8,18.8q7.72-3.35,10.25-3.55,8.2,0,8.48,6.29A24.73,24.73,0,0,1,55.17,29a18.21,18.21,0,0,1-4,5.95,5.1,5.1,0,0,1-3.62,1.71,2.84,2.84,0,0,1-2.73-2l-.68.14q-.07,2-.14,4,2.19-.34,4-.75a16.73,16.73,0,0,1,4-.55,10.16,10.16,0,0,1,4.44,1.16q3.14,2,3.14,3.49,0,.82-2.19.82-1.3,0-3.49-.14-3.21-.34-6.29-.48-2,.14-3.83.34-.14,3.62-.41,7.52A37.49,37.49,0,0,1,41,60.5Q40.33,62,39.58,62q-.14,0-.21-1.64t-.07-17A55.24,55.24,0,0,0,31,46.14a12.18,12.18,0,0,1-5,1.09,12.78,12.78,0,0,1-4.85-.89q-1.64-.62-1.78-1T20,45q3.14-.14,13.33-3.76a39.9,39.9,0,0,1,5.95-1.71v-3.9q-2.05.27-4.51.48-.21.75-.68.75a3.48,3.48,0,0,1-2.73-1.57Q30.15,33.84,29,28a9,9,0,0,0-2.32-3.49,2.61,2.61,0,0,1-1-1.57Q25.7,22.42,26.52,22.42Zm1-15.93a1.32,1.32,0,0,1,1,.55,2,2,0,0,1,.89-.68A37.37,37.37,0,0,1,35.07,4,14.61,14.61,0,0,0,37,3.55a5.75,5.75,0,0,1,.75-.07,4.41,4.41,0,0,1,2.19,1.3A5,5,0,0,1,41,6.08a18.06,18.06,0,0,0-.55-2.32.24.24,0,0,1,.27-.27q1.23.07,3.08,2.67a10.29,10.29,0,0,1,1.71,4q1.37-.82,1.91-1.09a9.6,9.6,0,0,0,1.91-3A6.63,6.63,0,0,0,50,4.31q0-.82-.55-.82A5.17,5.17,0,0,0,47.71,4q-1,.89-1.23.89-2.94-.14-3-1.71,0-.34.82-.75A23.5,23.5,0,0,1,49.15.41,9.19,9.19,0,0,0,50.72.07,4.2,4.2,0,0,1,51.34,0a4.06,4.06,0,0,1,2.05,1.09A4.26,4.26,0,0,1,54.69,3a1.83,1.83,0,0,1-.82,1.3,5.41,5.41,0,0,0-1,2.05l-2.12,4.72-.21.34a4.21,4.21,0,0,1-.48.82,2.26,2.26,0,0,1-1.44.55.6.6,0,0,1-.27-.07,16.57,16.57,0,0,1-2.53.89,5.4,5.4,0,0,1-1.5.34q-2,0-2-1.16a.2.2,0,0,1,.07-.14,11.59,11.59,0,0,1-.48-1.91q-.34-2.12-.68-3.62a1.65,1.65,0,0,1-.62,1,6.16,6.16,0,0,0-.89,2,38.24,38.24,0,0,1-2.26,5.67,2.13,2.13,0,0,1-1.44.62,3.55,3.55,0,0,1-1.37-1q-.82-.68-.82-1.16a3.1,3.1,0,0,1,.55-1.57,19.27,19.27,0,0,0,1.44-3.83,12.68,12.68,0,0,0,.48-2.05.48.48,0,0,0-.55-.55,7.92,7.92,0,0,0-2.94,1q-1.71,1.5-2.26,1.5a2.23,2.23,0,0,1-1.23-.27,2.5,2.5,0,0,0,.14.34,19.85,19.85,0,0,1,1.09,6.43q0,2.46-1.57,2.46a2.63,2.63,0,0,1-1.71-1A4,4,0,0,1,26.8,15,23.82,23.82,0,0,1,27,11.76a38,38,0,0,0,.34-4.1Q27.34,6.49,27.55,6.49ZM39.31,32V29.53q-2.26.41-5,.75a19.73,19.73,0,0,1,.55,2.87Q37.39,32.47,39.31,32Zm3.35-11a3.14,3.14,0,0,1,.55.55A7.47,7.47,0,0,1,44.09,24h.41q2.12,0,2.26,1.44T44.3,28.1q0,1.44-.07,2.87a14.21,14.21,0,0,1,2.87-.41,13.36,13.36,0,0,0,2.94-9q-.14-1.3-2.26-1.3A29,29,0,0,0,42.66,21Z"/><path d="M83.6,11.48a14.1,14.1,0,0,1,4.85,1q2.32,1.3,2.32,3.08,0,2.19-1.71,2.46a29,29,0,0,0-4.44,1.3l-.21,5.4a7.73,7.73,0,0,1,1.37-.14A2,2,0,0,1,88,26.73q0,1.91-2.39,9.78-.82,2.46-1.85,4.79v.89Q86,39.24,88.25,36a.24.24,0,0,1,.27.27,77.1,77.1,0,0,1-7.86,15.93q-3.28,4.58-4.92,4.58Q73.08,56.81,73,53q0-.89,2.26-4.24.82-1.3,1.57-2.73Q70,40.4,70,38q0-3.69,6.63-9.16a24.46,24.46,0,0,1,3-2.19l.07-5.4H79.5A5.12,5.12,0,0,1,75.13,19a5.41,5.41,0,0,1-1.57-3.49c0-.18.11-.3.34-.34q2.32-.34,8.54-3.28A3.18,3.18,0,0,1,83.6,11.48ZM77.72,44.23a34.66,34.66,0,0,0,1.78-3.69l.07-7.93q-.82.55-1.78,1.3Q73,36.78,73,38,73,40.13,77.72,44.23Zm17.09-36A6.75,6.75,0,0,1,98.3,9.78a3.83,3.83,0,0,1,2,3.28,12.24,12.24,0,0,1-.89,4.65,20,20,0,0,0,6.7-2q.21-6.15.21-10.8l-.55-2.46q0-.75,2.26-.82a4,4,0,0,1,2.6.89,5.06,5.06,0,0,1,1.71,4,21.8,21.8,0,0,1-.55,4q-.21,1.44-.41,2.94,4.78-2.46,7-2.46,1.57,0,1.71,1a6.79,6.79,0,0,1-4.44,6.84,21.17,21.17,0,0,1-4.79,1.64q-.07,1.91-.14,3.49a34.46,34.46,0,0,1,5.54-1.78,11.19,11.19,0,0,1,5.54,1.23q2.05,1.09,2.05,2.32,0,1.78-3.28,1.85-5.06.41-10,1.23-.07,3.69-.07,6.49v.34A38.2,38.2,0,0,0,123,45.25q6.36,3.08,8.27,4.79,1.57,1.37,1.57,1.64,0,1.3-3.28,1.3a19.52,19.52,0,0,1-11.07-3.49A34.8,34.8,0,0,1,110.67,42q.21,4.65.62,11.55-.14,5.95-1.44,6-1.85,0-4.1-2.87-2.19-3.08-2.19-4.44,0-.82.27-.82a3.94,3.94,0,0,0,1.91.82q.21,0,.21-1.57-.07-8.54,0-14.9A48.75,48.75,0,0,1,94.27,47Q91,49.22,89.35,49.22h-.27a67.88,67.88,0,0,0,10.8-10.94,72.77,72.77,0,0,0,5.74-8.54q-3.76.89-7.52,2.05A23.25,23.25,0,0,1,91.81,33Q90,33,90,32.2a4.42,4.42,0,0,1,1-.55q9.23-3.69,15-5.88.07-2.67.07-4.65-1.44.14-3,.14a7.35,7.35,0,0,1-4.72-1.37,2.67,2.67,0,0,1-.34.62q-2.73,4-4.72,4-1.16,0-1.16-.82A12,12,0,0,1,93.17,20q2.19-5.88,2.19-8.54a8.77,8.77,0,0,0-.82-2.73Q94.54,8.2,94.81,8.2Z"/></g></g></svg>