<svg xmlns="http://www.w3.org/2000/svg" viewBox="0 0 126.67 57.35"><title>shuttleword</title><g id="圖層_2" data-name="圖層 2"><g id="圖層_1-2" data-name="圖層 1"><path d="M20.78,2.67a4.83,4.83,0,0,1,2.6.82Q25,4.38,25,5.4q0,2.05-3.14,4.44-3,2.19-5.54,3.69l.07.07A8.89,8.89,0,0,1,18,19.35V21a14.93,14.93,0,0,1,4.72-1.09,1.7,1.7,0,0,1,1.91,1.44q0,3.42-3.69,4.79a16.51,16.51,0,0,1-3,1q-.07,3.15-.21,5.95A5,5,0,0,1,20,31.92a6.86,6.86,0,0,1,2.94.75,2.34,2.34,0,0,1,1.37,2,1.28,1.28,0,0,1-1.09,1.44A40.34,40.34,0,0,0,17.64,38q-.14,4-.14,7.59,0,3.08,4.31,4.51t17.77,1.5q10.94,0,15-1.78a7.85,7.85,0,0,0,5-5.4q.14-1,.68-1T62,45.32a7.91,7.91,0,0,1,1.23,4.1q0,3.35-4.37,5.33-5,2.32-14.36,2.32-16,0-24.61-3.28-6.43-2.87-6.43-7.66,0-1.57.14-6.29Q11.76,40.95,10.25,42q-5,3.28-6.7,3.35A3.11,3.11,0,0,1,1,44a3.56,3.56,0,0,1-1-2.12q0-.62.75-.82,3.9-.68,13-5.67.14-3.9.21-7.66-1.57.14-3.21.14a9,9,0,0,1-5.88-1.71q-1.3-1-1.3-1.5,0-.82.27-.82l2.46.27A30.66,30.66,0,0,0,14,22.35V19.07a4.71,4.71,0,0,0-1-3.28l-.14-.14q-5.54,3.21-8.2,3.21-1.44,0-1.44-.27,8.2-7.25,13.13-12Q19.75,2.67,20.78,2.67Zm31,3q3.76,0,3.76,3.35a11.68,11.68,0,0,1-.41,2.73A20.53,20.53,0,0,1,58,11.42a4.91,4.91,0,0,1,2.53.68,2.33,2.33,0,0,1,1.23,1.78q0,1-.55,1.16-3.08.14-7.25.48-.62,1.57-1.3,3.28a3,3,0,0,1,.07.55q0,1.3-1.85,2l-4.85.55q0,1-.07,2.05a26.09,26.09,0,0,1,4.31-.75q3,0,3,2.19A1.13,1.13,0,0,1,52,26.52a44.5,44.5,0,0,0-6.15.41q0,1.3-.07,2.67a32.08,32.08,0,0,1,7.52-1.23q3.9.07,3.9,2.73-.07,1.44-1.71,1.44a99.93,99.93,0,0,0-10,.48A44.77,44.77,0,0,1,44,39.92l-.21.62a29.74,29.74,0,0,0,4.65,1.37A16.72,16.72,0,0,1,54.21,44q1.3,1,1.3,1.64-.21,2-4,2a19.12,19.12,0,0,1-7.25-1.23q-3.28-1.44-9.57-6.84-2.05-1.78-3.76-3.21-2,4.31-4.79,5.88a10.36,10.36,0,0,1-4.44,1.57q-1.44,0-1.44-.62a13.1,13.1,0,0,0,5.13-3.28,17.08,17.08,0,0,0,2.94-5.67q-2.73-2.05-4.79-3.35a.24.24,0,0,1,.27-.27,10.44,10.44,0,0,1,4.1,1.23q.48.27.89.48a21.52,21.52,0,0,0,.75-4.65q0-.62-1-1.09-2.32-.75-2.32-1.91t3.28-7.72a.24.24,0,0,0-.27-.27l-6,1.16c-.14,0-.21-.09-.21-.27s.16-.43.48-.75a38.77,38.77,0,0,1,4-2.73,8.18,8.18,0,0,1,2.6-1.16,5.86,5.86,0,0,1,2.8.89,2.07,2.07,0,0,1,1.37,1.85,2.6,2.6,0,0,1-.27,1,7.06,7.06,0,0,1,1-.48q1.5-.48,7.18-1.71V11.21q-2,.21-3,.21-2.87-.14-3.35-1.3,0-.41,1.5-.75,2.67-1,4.85-1.57V5.4A22.58,22.58,0,0,0,41.29.55q0-.55,1.16-.55a3.53,3.53,0,0,1,3.08,1.44,7.45,7.45,0,0,1,1,4V6.63A35.81,35.81,0,0,1,51.75,5.67ZM31.86,33.84q2.46,1.37,5,3.08A28.23,28.23,0,0,0,42.45,40v-.21q-.14-.82-.27-6.36a38.11,38.11,0,0,1-5.2.41,4.61,4.61,0,0,1-2.32-.55q-.89-.34-1-.75c0-.18.21-.27.62-.27a28.84,28.84,0,0,0,7.86-1.64V27.55a16.23,16.23,0,0,1-2.73.27,4,4,0,0,1-1.91-.41q-.75-.27-.82-.62c0-.18.14-.27.41-.27a15.62,15.62,0,0,0,5.06-1.3v-3q-1.78.14-2.73.14-1.91,0-1.91-1,0-.41,1.16-.75,1.91-.62,3.49-1.09V16.54q-4.17.41-8.75,1A67.44,67.44,0,0,1,29,23.17c0,.18.25.3.75.34q4,.68,4,3Q33.7,28.57,31.86,33.84ZM46.28,16.2q0,1.09-.07,2.19.75-.21,1.37-.34L48.19,16Q47.17,16.06,46.28,16.2Zm.14-5.47q0,1.37-.07,2.73l2.73-.55.68-2.32c0-.18-.16-.27-.48-.27Q47.71,10.53,46.42,10.73Z"/><path d="M108.83,1.09q4.92,0,4.92,3.21-.14,4.1-12.17,12.51-2.05,1.44-2.05,2.05T101,20q5.6,1.64,7.93,4.51,6.63-.41,8.27-.41a11.88,11.88,0,0,1,5.47,1.71q4,2.05,4,3.42,0,2.8-3.62,2.8a7.41,7.41,0,0,1-3.49-1.44,20,20,0,0,0-8.89-2.39,11.94,11.94,0,0,1,.07,1.3q0,13.47-4.37,20.58-4.85,7.25-10.12,7.25-2.26-.14-5-3.49-2.32-3.08-2.32-5a.48.48,0,0,1,.55-.55q3.28,3,4.58,3,3.9,0,6.63-3.9,4-5.54,4-17.91a7.91,7.91,0,0,0-.07-1.09,31.46,31.46,0,0,0-4.51.68,84.59,84.59,0,0,0-11.83,4.44,13.6,13.6,0,0,1-5.4,1.71,7.08,7.08,0,0,1-3.83-1.16q-.82-.55-.82-.75a.56.56,0,0,1,.55-.62A17.09,17.09,0,0,0,85.52,31a80.91,80.91,0,0,1,10.39-4,35.29,35.29,0,0,1,7.25-1.85,13.22,13.22,0,0,0-4.79-3.62,2.05,2.05,0,0,1-1.57-1.91q0-1.57,6.22-9.37,3.08-3.62,3.08-4.85c0-.18-.27-.27-.82-.27q-12.17,5.2-17.77,5.2a2.68,2.68,0,0,1-2-.68A1.82,1.82,0,0,1,85,8.41q0-.82,1.5-.82A57,57,0,0,0,99,3.62,24.18,24.18,0,0,1,108.83,1.09Z"/></g></g></svg>