<svg xmlns="http://www.w3.org/2000/svg" viewBox="0 0 496.49 103.16"><defs><style>.cls-1{isolation:isolate;}</style></defs><title>資產 21</title><g id="圖層_2" data-name="圖層 2"><g id="圖層_1-2" data-name="圖層 1"><g id="圖層_2-2" data-name="圖層 2"><g id="圖層_1-2-2" data-name="圖層 1-2"><g class="cls-1"><path d="M18.74,13.07q1.52,0,4.79,2.07A5,5,0,0,1,26,19.5,9.53,9.53,0,0,1,25.93,21a36.76,36.76,0,0,0,4.79-1.42q.22-5.23.22-9.59,0-3.16-3.27-5.66a1.89,1.89,0,0,1-1.09-1.42q0-1.31,2.51-1.31a9.57,9.57,0,0,1,6.54,2.29A7.91,7.91,0,0,1,38.24,10q0,3.81-.11,7.3a20.13,20.13,0,0,1,4.14-.44q3.92,0,3.92,2.61,0,2.83-6,4.14-1.31.22-2.4.44v3.49a27,27,0,0,1,4-.54q6,0,6,4.36-.11,2.07-2.51,2.07a52.45,52.45,0,0,0-7.63.54q-.11,2.29-.11,4.58a24.41,24.41,0,0,1,5.88-2q5.45,0,5.66,6.43a12.3,12.3,0,0,1-.44,3.16q1.31.11,3.7.44a18,18,0,0,1,6.43,2.29q2.07,1.53,2.18,2.94a11.77,11.77,0,0,1-.44,2.4q3.92-2.07,5.56-2.07a10.72,10.72,0,0,1,3.92.87,3.36,3.36,0,0,1,1.74,2.72,1.46,1.46,0,0,1-1.31,1.63q-7.41,1.53-13.83,3.38a15.4,15.4,0,0,1-1,1.42q25.49,20.26,37,25.6A19.12,19.12,0,0,1,97.82,91a5.17,5.17,0,0,1,1.42,3q0,2.29-6,2.29a18.81,18.81,0,0,1-8.93-2.61q-3.81-2-19-16.88-.44,2.07-1.2,4.47A58.16,58.16,0,0,1,55.23,97.5q-4.47,5.34-6.1,5.34t-3.7-3.49a10.51,10.51,0,0,1-2-6.1V77.13A60.52,60.52,0,0,1,34,84.75Q22.22,92.81,11.22,94.88a.39.39,0,0,1-.44-.44q15.79-8.39,25.93-18.52A70.76,70.76,0,0,0,47.5,63.73q-5.23,2-9.8,4.14-12.64,6-16.89,6.21a4.32,4.32,0,0,1-3.49-1.74A4.46,4.46,0,0,1,16,69.72q0-1.09,2-1.42Q28.54,66.89,54.9,56.43a6.49,6.49,0,0,1-1.42-1.85,23,23,0,0,0-5.12-7.19c-.07.29-.15.54-.22.76a10,10,0,0,1-2.83,4.14,4,4,0,0,1-2.72,1.2A1.67,1.67,0,0,1,41,51.85a4.16,4.16,0,0,1,1.2-1.63q2.72-2.5,2.72-7.19-.22-1.2-1.85-1.2a21.68,21.68,0,0,0-5.45,1.42q-.11,4.9-.11,10.24Q36.93,59,32.68,59.7q-3.81-.76-4-7.08a14.4,14.4,0,0,1,.65-4.36,6.78,6.78,0,0,1,.11-1.09,1.2,1.2,0,0,0-.44.22Q23.31,50.65,21,51a9.8,9.8,0,0,1,1.63,5.23q0,2.07-2.72,2.07-1.53,0-3.59-2.83a13.24,13.24,0,0,1-2.4-7.19,1.06,1.06,0,0,1,1.2-1.2,5.77,5.77,0,0,1,3.7,1.31A6.29,6.29,0,0,1,19.94,48a32.11,32.11,0,0,0,7-3.92q1.41-.76,2.72-1.53.22-2.94.33-6.86A56.61,56.61,0,0,0,17.21,41.4q-7,4-12,4.36a7.06,7.06,0,0,1-3.7-1Q.11,44.12,0,43.46q0-1,1.2-1,6.21,0,18.3-7.52a86.77,86.77,0,0,1,10.78-5.34q.11-2.29.22-4.58a11.83,11.83,0,0,1-1.42.11,8.8,8.8,0,0,1-4.14-1.09q-.65,1.09-1.42,2.29Q20.48,30,18.3,30q-1.85,0-1.85-1.31a11,11,0,0,1,1.09-3.38q2-5.44,2-7.84a12.22,12.22,0,0,0-1.2-3.92A.39.39,0,0,1,18.74,13.07Zm45.1,62.2q-3.6-3.48-7.41-7.3a33.23,33.23,0,0,0-2.83-2.72,48.15,48.15,0,0,1-4,5.45,13.12,13.12,0,0,1,.54,4.25q0,2.07.22,6.75.22,3.7.22,8.39a.77.77,0,0,0,.87.87,59.31,59.31,0,0,0,4.79-5A52.36,52.36,0,0,0,63.84,75.27Zm-5-59.7q2.4,0,5.34,3.7a18.91,18.91,0,0,1,3.27,10.24q0,5.66-3.38,5.66-1.74,0-3.92-2.29a8.66,8.66,0,0,1-1.31-4.25ZM75.27,56.21a10.31,10.31,0,0,1,5.23,1.52q3.16,2,3.16,4,0,1-2.29,2.18-9,4.47-12.09,4.47t-3.16-1q4.25-5.12,6.86-8.5Q74.73,56.21,75.27,56.21ZM74.08,0a7.52,7.52,0,0,1,4.79,1.85,6.36,6.36,0,0,1,2.07,4.58,12.29,12.29,0,0,1-.44,2.83,12.26,12.26,0,0,0-.44,3.38q0,8.5,1.74,31.26a16.77,16.77,0,0,1-1.31,6.86q-.76,1.42-1.63,1.42-2.61,0-10-9.15a.39.39,0,0,1,.44-.44,41.51,41.51,0,0,0,5.23.44V10.35A14.72,14.72,0,0,0,70.92.76Q70.92,0,74.08,0Z"/><path d="M142.2,6.86q2.4,0,6.43,3.38a10.21,10.21,0,0,1,4,8.06q0,6.43-7.62,18-1.85,2.72-3.92,5.45a5.13,5.13,0,0,1,2.29,2.07Q146,49,146.24,61.33l6.86-18.19q.54-1.31,1.42-1.31c.29,0,.44.4.44,1.2Q150.26,64.16,147.22,79q-1.2,6.64-3.16,9A3.83,3.83,0,0,1,141,89.65q-4.8,0-4.79-7.3a115.82,115.82,0,0,1,1.63-15.47,109.78,109.78,0,0,0,1.85-16.77,16.49,16.49,0,0,0-.87-5.45A160.43,160.43,0,0,1,123.9,61q-.76,0-.76-.87a245.24,245.24,0,0,0,15.8-35.19Q142.2,15.58,142.2,10a2,2,0,0,0-.76-1.74C141.44,7.34,141.7,6.86,142.2,6.86Zm32.24-5.23q4.47,0,9.26,4.47,3.92,3.38,3.92,7.41t-3.7,9.15a101.15,101.15,0,0,0,11-4Q200.38,16,202.77,16q3.38.22,7.73,3.27,4.14,2.83,4.14,4.68,0,2.61-4.36,2.61l-27,1.74a22.59,22.59,0,0,1-3.92-.44q-6.86,7.3-9.26,7.3-1.42,0-1.63-3.81,0-3.16,3.49-9.48,4.25-8.39,4.25-12.75,0-2.5-2.94-6.65Q173.25,1.63,174.45,1.63Zm10.89,27.45q.76,0,2.51,4.36a23,23,0,0,1,2.29,10v.33q5.45-2.29,10.68-4.25a19.93,19.93,0,0,1,6.32-1.63,7.47,7.47,0,0,1,3.16,1.31,4.57,4.57,0,0,1,1.63,3q0,1.09-2.4,4.9-4,6.43-7.52,8.82a9.33,9.33,0,0,1-4.79,1.85q-1.74,0-1.74-.44,2.07-1,4.79-5.56,2.07-3.7,2.07-5.67c0-.58-.26-.87-.76-.87a83.3,83.3,0,0,1-11.44,1.74q.11,4.47.44,11.11.22,2.29.22,4.47a55.73,55.73,0,0,1,15.47-2.07q4.47,0,6.32,1.63a5.68,5.68,0,0,1,2.07,4.36q0,3.16-3.92,3.16a6.77,6.77,0,0,1-2.83-.87q-4.14-1.52-17-2.4.22,9.37.22,18.85,0,3.81.87,13.94,0,3.92-3.16,3.92-2.61,0-4.25-5.88A48.28,48.28,0,0,1,183.27,88q0-5.34.87-24.29.76-16.45.76-26.25A38,38,0,0,0,184,30Q184,29.09,185.34,29.09Z"/><path d="M263.28,19.5q.76,0,2.83,4.79a22.17,22.17,0,0,1,2.83,10.89q0,3.81-.87,12.42-.87,11-.87,22.88,0,4.25.87,15.25,0,4.35-3.49,4.36-2.94,0-4.68-6.54a54.66,54.66,0,0,1-1.42-10.35q0-4.79,2.29-21.46a170.4,170.4,0,0,0,2.07-23.09,42.14,42.14,0,0,0-1-8.28Q261.86,19.5,263.28,19.5ZM307.18,57q6.1.11,6.1,4.36a2.19,2.19,0,0,1-2.51,2.29,78.43,78.43,0,0,0-8.39.44V80.28a7.27,7.27,0,0,1-1.31,4.79A3.72,3.72,0,0,1,298,86.6q-2.94,0-9.15-8.61v-.44a9.19,9.19,0,0,0,5.23,2.18q2.72,0,2.72-2.4V64.82A76,76,0,0,0,284.74,68a25.89,25.89,0,0,1-3.27,1.2l.87.44a5.34,5.34,0,0,0,2.4.87q1.09,0,2.94-2.07c.22,0,.33.15.33.44a9,9,0,0,1-.76,3.81q-1.42,2.29-3.16,2.29-2.51,0-4.68-2.83A20.06,20.06,0,0,0,277.66,70a20.18,20.18,0,0,1-3.92.44,7.74,7.74,0,0,1-3.7-.87q-1.42-.54-1.53-1.2c0-.51.36-.76,1.09-.76q5.77,0,17-5.12a86.78,86.78,0,0,1,10.24-3.81,5.37,5.37,0,0,0-1.09-3.27,1.21,1.21,0,0,1-.65-1q0-.87,1.74-1a5,5,0,0,1,5.23,4A50,50,0,0,1,307.18,57Zm8.39-47.39a16.23,16.23,0,0,1,11.66,5,15.33,15.33,0,0,1,4.36,11.33,42.35,42.35,0,0,1-.65,6.43,40.51,40.51,0,0,0-.76,8.82V81a27.58,27.58,0,0,1-3.92,15q-3.49,5-6.32,5-1.53,0-3.81-4.47a24.1,24.1,0,0,1-1-5.67q0-1.09,2.07-5.34a27,27,0,0,0,2.72-11.11V23.09q0-4.14-4.58-5.88a30.64,30.64,0,0,0-12.53-2.51,47.29,47.29,0,0,0-13.73,2.94q-6.86,2.29-9.37,2.29-6,0-6-2.5,0-.54,1.52-1a176.56,176.56,0,0,1,20-4.9A132.05,132.05,0,0,1,315.56,9.59ZM302.82,22.66q2.29,0,2.29,1.63,0,2.83-7.19,4.25-.11,1.2-.22,2.29a58,58,0,0,1,9.91-1.74q3.92,0,3.92,3.59,0,3.81-6.43,12.53v.11a1.34,1.34,0,0,1-.54,1.09,12.44,12.44,0,0,1,3.38,2.07q2.83,2.83,2.83,5.45,0,1.42-1.74,1.42-2.4,0-5.23-2.61a11,11,0,0,1-2.51-2.94,48.21,48.21,0,0,1-6.21,3.7v.44L294,54a43.9,43.9,0,0,1-6.21,2.83q-7.63,2.72-9.7,2.83A2.48,2.48,0,0,1,276,58.39a6.6,6.6,0,0,1-1.09-3.49q.11-1.42,1.42-1.42a.7.7,0,0,1,.65.44c.22.36.44.54.65.54a18,18,0,0,0,3.27-.54q5.55-1.2,10.67-2.61V47.6q-3.05.22-4.47.22-.11,1.85-.76,1.85A4.65,4.65,0,0,1,282.88,48q-1.42-1.41-2.94-7.19a8.88,8.88,0,0,0-2.83-3.49q-1.31-1-1.31-1.63c0-.36.33-.54,1-.54a14.32,14.32,0,0,1,3.38.33,8.3,8.3,0,0,1,4.9,4.14.32.32,0,0,1,.11.22,48.68,48.68,0,0,0,6.1-1.85.86.86,0,0,1,.33-.11V35.84a27,27,0,0,1-3.59.33q-2.61-.22-3.05-1.42,0-.54,2.18-1,2.29-.65,4.47-1.31V29.52a97.86,97.86,0,0,1-10,.87,5.59,5.59,0,0,1-2.72-.65c-.8-.51-1.2-.87-1.2-1.09q0-.76,2.4-1a60.66,60.66,0,0,0,10.68-3,1.76,1.76,0,0,1,.76-.22,13.11,13.11,0,0,0-.76-3.27,5.59,5.59,0,0,1-1-2q0-2.29,4.36-2.29A5.47,5.47,0,0,1,297,18a3.23,3.23,0,0,1,1.42,2.83c0,.51,0,1.2-.11,2.07Q300.64,22.66,302.82,22.66Zm4.36,63.94q6.1,0,6.1,4.36a2.19,2.19,0,0,1-2.51,2.29q-10.78,0-20.48.44-5,.33-8.71.33a6.76,6.76,0,0,1-3.59-.87q-1.53-.55-1.63-1.2c0-.22.29-.33.87-.33q4.68,0,13.62-2.5A83.9,83.9,0,0,1,307.18,86.6ZM291.6,45.1V42.16q-3.49.33-5.23.44a11.12,11.12,0,0,1,.87,3.38Q289.53,45.54,291.6,45.1Zm9,3.27a4.6,4.6,0,0,1-.22-1.2l-4.58.22q-.11,1.42-.33,2.72Q298.14,49.24,300.64,48.37Zm-3.38-13.51q-.11,1-.22,1.85,1.42-.11,2.83-.11,2.07,0,2.07,1.63,0,2.18-5.34,3.16-.22,1.53-.33,2.72,2.5-.54,3.92-.76l4.9-9.91h-.44Q300.42,34.42,297.26,34.86Z"/><path d="M391.65,14.38q6.86,0,6.86,4.79-.11,3.38-10.46,10.46-1.63,1.2-1.63,1.74,0,.76,1.09,1.31,8.06,2.83,8.06,9.91t-2.18,10.89q-2.29,3.92-4.9,3.92-2.72-.22-6.1-5.66-.55-1-.87-1.63.54,7.19.54,18.19V78.87l4.68-6.21a1,1,0,0,1,.87-.44c.29,0,.44.33.44,1q-3.38,9.8-5.45,16.67-.87,3.16-2.4,4.25a3.2,3.2,0,0,1-2.18.76q-3.49,0-3.49-5.67A192.42,192.42,0,0,1,376.39,68Q378,52.72,378,44.77a16,16,0,0,0-1.2-6.1c0-.29.4-.44,1.2-.44s1.74,1.13,2.4,3.38q.33,1.42.54,2.94,3,4.57,4.58,4.58.54,0,1-1.2a13.59,13.59,0,0,0,.76-5.34,11.39,11.39,0,0,0-3.59-8.5,2.17,2.17,0,0,1-.87-1.85q0-1.42,3.59-7.3a9.66,9.66,0,0,0,1.63-3.7c0-.29-.4-.44-1.2-.44q-9,4.36-13.18,4.36a4,4,0,0,1-3.16-1.2,2.4,2.4,0,0,1-.76-1.74q0-1,1.42-1A54.85,54.85,0,0,0,382.6,17.1,18.87,18.87,0,0,1,391.65,14.38ZM440.34,6a9.15,9.15,0,0,1,4.14,1q3.16,1.74,3.27,3,0,2.51-3.81,6.21t-6.65,6.32a3.26,3.26,0,0,1,1.74,3q0,1.09-1.85,2.18a152.94,152.94,0,0,0-14.71,12.31l-3.7,3.7a36.63,36.63,0,0,0,6.32,3.27,6.33,6.33,0,0,1,4.14,4.79,19.58,19.58,0,0,1,.65,2.94,70.81,70.81,0,0,0,19.28,19.83q10,6.32,13.07,9.91,2.61,2.94,2.61,3.49,0,1.2-3.49,1.2-9.48,0-18-8-6-5.45-12.64-16.78v1.63a85.26,85.26,0,0,1-2.83,20.48q-1.63,6.86-3.7,10.13a6.42,6.42,0,0,1-4.36,2.07q-1.53,0-2.83-4.14-2.29-7.41-2.29-8.93a.39.39,0,0,1,.44-.44,5.78,5.78,0,0,0,3,1.31q1.52,0,2.29-2,3.38-12.09,3.38-18.85V63.18a171.12,171.12,0,0,1-12.53,21q-2.94,3.81-5,3.81-1.63,0-1.63-2.29,0-1,2.07-3.92,8.39-12.75,8.39-21.24a7.48,7.48,0,0,0-.11-1.2Q405.15,70,403.63,72.44q-.87,1.2-1.2,1.2-2-.22-2.07-4.79,0-1.41,2-2.94a169.1,169.1,0,0,0,12.31-13q2.94-3.16,3.16-4.68a1.06,1.06,0,0,1,.44-.65l-.33-.33a7.37,7.37,0,0,1-1.31-1.42q-5.45,5.23-7.08,6a9.26,9.26,0,0,1-3.16.76.38.38,0,0,1-.44-.44,123.41,123.41,0,0,0,11.66-15.47q-7.63,3.81-11.22,3.81-4.68-.22-5.12-6.21,0-.87.33-.87a12.77,12.77,0,0,0,4.79.87q7.52,0,19.28-7.52a34.21,34.21,0,0,1,5.88-3.49,57.58,57.58,0,0,0,4-5.66q3.92-6.32,3.92-8.93A10.69,10.69,0,0,1,439,6.86Q439,6.1,440.34,6Zm-25.6,7.52q.54,0,2,2.4a2.58,2.58,0,0,0,2,1A20.94,20.94,0,0,0,423,15.58V16q-3.38,8-7.08,8-4.36,0-4.36-4.14a9,9,0,0,1,1.2-4.58Q414.09,13.51,414.74,13.51Zm2.07,43.9,1.09.65a3.84,3.84,0,0,1,1.63,3.27q0,3.05-3.6,10.89a4.21,4.21,0,0,0-.33.87q3.81-5.12,8.17-11.55a38.78,38.78,0,0,0-.87-7.19,6.23,6.23,0,0,0-1.2-2.4,11.58,11.58,0,0,1-1.63,2Q418.33,55.88,416.81,57.41Zm24.07-19.17a8.92,8.92,0,0,1,4,1q3.16,1.74,3.27,3,0,1.74-2.18,4.58-7,8.5-9,8.5-1.74-.11-1.85-.87t.33-.87q1.2-.43,2.94-6.1A25.47,25.47,0,0,0,439.9,41a10.71,10.71,0,0,1-.44-1.85Q439.47,38.35,440.88,38.24Z"/></g><path d="M478.57,95.51l-1.4-.38,1-3.92h.41l.25.16a3,3,0,0,0,.48.14l.26.05Zm-.79-.73.44.12.79-3-.36-.12-.07,0Z"/><path d="M480.51,92a6.39,6.39,0,0,1-1.26-.11,3.3,3.3,0,0,1-.61-.18l-.13,0h-.19c-3.52-1.13-7.21-7.32-9.1-10.91l-.66-1.26,1.05,1c2.83,2.59,10.74,8.39,23.11,6.54l1.26-.19-1.09.65C486.48,91.26,482.57,92,480.51,92Zm-2.07-.84h.19l.18.06a2.84,2.84,0,0,0,.54.16c1.28.26,4.95.37,12.22-3.76a28.2,28.2,0,0,1-21.26-5.94C472.09,84.87,475.4,90.15,478.45,91.15Z"/><path d="M488.1,87.91a27.88,27.88,0,0,1-18.81-7.06,15.85,15.85,0,0,1-1.45-1.48l-.09-.1L469,74.51h0l.48.13h0a1.49,1.49,0,0,0,.23,1.12c1.21,2.09,6.12,4.64,11.94,6.2,7.89,2.1,13.71,1.56,14.2-.26l.06-.23.54.11L495,87.19l-.15,0c-.71.14-1.37.25-2,.34A32.51,32.51,0,0,1,488.1,87.91Zm-19.8-8.77a15.52,15.52,0,0,0,1.32,1.34,27.84,27.84,0,0,0,23.13,6.59c.59-.08,1.19-.18,1.83-.31l1.06-4c-2,1.45-7.64,1.37-14.09-.36-6-1.61-11-4.19-12.25-6.43l-.11-.21Z"/><path d="M490.81,83.82a37,37,0,0,1-9.26-1.39h0c-6-1.61-10.95-4.2-12.22-6.43a2,2,0,0,1-.27-1.54c.66-2.32,6.8-2.63,14.3-.7l.24.06L483.29,75l-.24-.06c-5.84-1.5-10.75-1.37-11.2.3s3.51,4.3,10,6,11.3,1.27,11.69-.18-3.37-4.13-9.58-5.86l-.24-.07L484,74l.24.07c7.46,2.07,12.66,5.41,12.1,7.77a2,2,0,0,1-1,1.17A9.65,9.65,0,0,1,490.81,83.82ZM474.5,73c-2.76,0-4.66.54-5,1.6a1.5,1.5,0,0,0,.22,1.15c1.19,2.1,6.09,4.65,11.91,6.2h0c5.82,1.57,11.34,1.81,13.44.6a1.48,1.48,0,0,0,.76-.86c.47-2-4.67-5.16-11.5-7.1l-.06.23c6.05,1.73,10.21,4.47,9.69,6.41s-5.94,2.24-12.31.54-10.87-4.57-10.33-6.63c.59-2.24,6.22-2.05,11.56-.72l.06-.23A36.34,36.34,0,0,0,474.5,73Z"/><path d="M489.41,82.86a30.89,30.89,0,0,1-7.66-1.15c-4.92-1.31-9.09-3.51-10.14-5.36a1.61,1.61,0,0,1-.22-1.24c.54-1.94,5.62-2.22,11.8-.66l.24.06-.33,1.24-.24-.06c-4.87-1.22-8.19-.84-8.48.22s2.8,3.25,7.7,4.56a22.51,22.51,0,0,0,6.19.86c1.58,0,2.61-.41,2.76-1,.26-1-2.58-3.08-7.25-4.45l-.23-.07.33-1.24.24.07c4.9,1.37,8.71,3.41,9.71,5.2a1.66,1.66,0,0,1,.21,1.28C493.74,82.29,492,82.86,489.41,82.86ZM476,73.93c-2.43,0-3.93.51-4.15,1.31a1.13,1.13,0,0,0,.17.86c1,1.74,5,3.84,9.84,5.12,6.47,1.72,11.28,1.29,11.7-.19a1.18,1.18,0,0,0-.17-.9c-.91-1.62-4.58-3.57-9.16-4.89l-.07.28c3.93,1.18,7.79,3.3,7.36,5h0c-.22.82-1.33,1.28-3.23,1.33A22.71,22.71,0,0,1,482,81c-4.27-1.14-8.55-3.35-8.06-5.18s4.75-1.63,8.84-.64l.07-.28A29.15,29.15,0,0,0,476,73.93Z"/><path d="M487.87,81.86a23.74,23.74,0,0,1-5.93-.88c-4.27-1.15-8.54-3.35-8.06-5.18h0c.47-1.75,5-1.6,9.08-.57l.25.06-.63,2.35.44.12.63-2.36.24.07c4.14,1.17,8.08,3.29,7.61,5-.22.81-1.34,1.28-3.23,1.33Zm-13.5-5.93c-.29,1.1,2.8,3.25,7.7,4.56a22.47,22.47,0,0,0,6.19.86c1.58,0,2.62-.41,2.77-1,.28-1-2.32-3-7-4.37l-.63,2.36L482,78l.63-2.34c-4.59-1.12-7.95-.78-8.23.27Z"/><path d="M483.37,78.36,482,78l2.06-7.7,1.41.38Zm-.79-.73.44.12L484.83,71l-.45-.12Z"/></g></g></g></g></svg>