<svg xmlns="http://www.w3.org/2000/svg" viewBox="0 0 66.1 333.28"><title>資產 2</title><g id="圖層_2" data-name="圖層 2"><g id="圖層_1-2" data-name="圖層 1"><path d="M12.48,8.71a7.23,7.23,0,0,1,3.19,1.38A3.32,3.32,0,0,1,17.34,13a6.37,6.37,0,0,1-.07,1,24.58,24.58,0,0,0,3.19-.94q.14-3.48.15-6.39A4.75,4.75,0,0,0,18.43,2.9,1.26,1.26,0,0,1,17.7,2q0-.87,1.67-.87a6.37,6.37,0,0,1,4.35,1.52,5.27,5.27,0,0,1,1.74,4.06q0,2.54-.07,4.86a13.42,13.42,0,0,1,2.76-.29q2.61,0,2.61,1.74t-4,2.76l-1.6.29v2.32A18,18,0,0,1,27.86,18q4,0,4,2.9-.07,1.38-1.67,1.38a34.89,34.89,0,0,0-5.08.36q-.07,1.52-.07,3A16.3,16.3,0,0,1,29,24.38q3.63,0,3.77,4.28a8.18,8.18,0,0,1-.29,2.1q.87.07,2.47.29a12,12,0,0,1,4.28,1.52,3,3,0,0,1,1.45,2,7.84,7.84,0,0,1-.29,1.6A9.79,9.79,0,0,1,44,34.75a7.14,7.14,0,0,1,2.61.58,2.24,2.24,0,0,1,1.16,1.81,1,1,0,0,1-.87,1.09q-4.94,1-9.21,2.25a10.32,10.32,0,0,1-.65.94q17,13.5,24.67,17.05a12.73,12.73,0,0,1,3.41,2.1,3.45,3.45,0,0,1,.94,2q0,1.52-4,1.52a12.53,12.53,0,0,1-5.95-1.74q-2.54-1.31-12.62-11.25-.29,1.38-.8,3a38.72,38.72,0,0,1-5.95,10.81q-3,3.55-4.06,3.56t-2.47-2.32A7,7,0,0,1,29,62.11V51.37a40.3,40.3,0,0,1-6.31,5.08A40.34,40.34,0,0,1,7.47,63.2a.26.26,0,0,1-.29-.29A72,72,0,0,0,24.45,50.57a47.11,47.11,0,0,0,7.18-8.13q-3.48,1.31-6.53,2.76-8.42,4-11.25,4.14a2.88,2.88,0,0,1-2.32-1.16,3,3,0,0,1-.87-1.74q0-.72,1.31-.94,7-.94,24.6-7.91a4.33,4.33,0,0,1-.94-1.23,15.31,15.31,0,0,0-3.41-4.79c0,.19-.1.36-.15.51a6.64,6.64,0,0,1-1.89,2.76,2.67,2.67,0,0,1-1.81.8,1.11,1.11,0,0,1-1.09-1.09,2.77,2.77,0,0,1,.8-1.09,6.18,6.18,0,0,0,1.81-4.79q-.15-.8-1.23-.8A14.44,14.44,0,0,0,25,28.8Q25,32.07,25,35.63q-.36,3.7-3.19,4.14-2.54-.51-2.68-4.72a9.59,9.59,0,0,1,.44-2.9,4.52,4.52,0,0,1,.07-.73.8.8,0,0,0-.29.15A18.63,18.63,0,0,1,14,34a6.52,6.52,0,0,1,1.09,3.48q0,1.38-1.81,1.38-1,0-2.39-1.89a8.82,8.82,0,0,1-1.6-4.79.71.71,0,0,1,.8-.8,3.84,3.84,0,0,1,2.47.87,4.19,4.19,0,0,1,.73-.22,21.38,21.38,0,0,0,4.64-2.61q.94-.51,1.81-1,.14-2,.22-4.57a37.71,37.71,0,0,0-8.49,3.77,19.22,19.22,0,0,1-8,2.9A4.7,4.7,0,0,1,1,29.82q-.94-.44-1-.87c0-.44.27-.65.8-.65q4.14,0,12.19-5a57.75,57.75,0,0,1,7.18-3.56q.07-1.52.15-3a7.85,7.85,0,0,1-.94.07A5.86,5.86,0,0,1,16.62,16q-.44.73-.94,1.52Q13.64,20,12.19,20,11,20,11,19.08a7.32,7.32,0,0,1,.73-2.25A18,18,0,0,0,13,11.61,8.13,8.13,0,0,0,12.19,9,.26.26,0,0,1,12.48,8.71Zm30,41.43q-2.39-2.32-4.93-4.86a22.13,22.13,0,0,0-1.89-1.81A32.09,32.09,0,0,1,33,47.09a8.74,8.74,0,0,1,.36,2.83q0,1.38.15,4.5.15,2.47.15,5.59a.51.51,0,0,0,.58.58,39.48,39.48,0,0,0,3.19-3.34A34.84,34.84,0,0,0,42.52,50.14ZM39.18,10.38q1.6,0,3.56,2.47a12.6,12.6,0,0,1,2.18,6.82q0,3.77-2.25,3.77a4,4,0,0,1-2.61-1.52,5.77,5.77,0,0,1-.87-2.83Zm11,27.06a6.86,6.86,0,0,1,3.48,1q2.1,1.31,2.1,2.68,0,.65-1.52,1.45-6,3-8.05,3T44,44.91q2.83-3.41,4.57-5.66Q49.77,37.44,50.14,37.44ZM49.34,0a5,5,0,0,1,3.19,1.23,4.23,4.23,0,0,1,1.38,3,8.18,8.18,0,0,1-.29,1.89,8.17,8.17,0,0,0-.29,2.25q0,5.66,1.16,20.82a11.17,11.17,0,0,1-.87,4.57q-.51.94-1.09.94-1.74,0-6.67-6.09a.26.26,0,0,1,.29-.29,27.64,27.64,0,0,0,3.48.29V6.89A9.81,9.81,0,0,0,47.23.51Q47.23,0,49.34,0Z"/><path d="M13,93.73q1.6,0,4.28,2.25A6.8,6.8,0,0,1,20,101.35q0,4.28-5.08,12-1.23,1.81-2.61,3.63a3.42,3.42,0,0,1,1.52,1.38q1.74,3.48,1.89,11.68l4.57-12.12q.36-.87.94-.87.29,0,.29.8-3.12,14.08-5.15,23.94-.8,4.43-2.1,6a2.55,2.55,0,0,1-2,1.09Q9,148.87,9,144a77.11,77.11,0,0,1,1.09-10.3,73.13,73.13,0,0,0,1.23-11.17,11,11,0,0,0-.58-3.63A106.76,106.76,0,0,1,.8,129.79c-.34,0-.51-.19-.51-.58a163.39,163.39,0,0,0,10.52-23.44A32.23,32.23,0,0,0,13,95.83a1.33,1.33,0,0,0-.51-1.16C12.48,94,12.65,93.73,13,93.73Zm21.48-3.48q3,0,6.17,3a6.49,6.49,0,0,1,2.61,4.93,10.59,10.59,0,0,1-2.47,6.1,67.31,67.31,0,0,0,7.33-2.69,14.4,14.4,0,0,1,5.22-1.74A10.6,10.6,0,0,1,58.48,102q2.76,1.89,2.76,3.12,0,1.74-2.9,1.74l-18,1.16a15.07,15.07,0,0,1-2.61-.29q-4.57,4.86-6.17,4.86-.94,0-1.09-2.54,0-2.1,2.32-6.31,2.83-5.59,2.83-8.49,0-1.67-2-4.43Q33.67,90.25,34.46,90.25Zm7.26,18.28q.51,0,1.67,2.9a15.31,15.31,0,0,1,1.52,6.67v.22q3.63-1.52,7.11-2.83a13.27,13.27,0,0,1,4.21-1.09,5,5,0,0,1,2.1.87,3,3,0,0,1,1.09,2,9.41,9.41,0,0,1-1.6,3.27,20.09,20.09,0,0,1-5,5.88,6.21,6.21,0,0,1-3.19,1.23q-1.16,0-1.16-.29,1.38-.65,3.19-3.7A8.79,8.79,0,0,0,53,119.92c0-.39-.17-.58-.51-.58a55.47,55.47,0,0,1-7.62,1.16q.07,3,.29,7.4.15,1.52.15,3a37.14,37.14,0,0,1,10.3-1.38q3,0,4.21,1.09a3.79,3.79,0,0,1,1.38,2.9q0,2.1-2.61,2.1a4.5,4.5,0,0,1-1.89-.58q-2.76-1-11.32-1.6.14,6.24.15,12.55,0,2.54.58,9.29,0,2.61-2.1,2.61-1.74,0-2.83-3.92a32.19,32.19,0,0,1-.87-6.17q0-3.55.58-16.18.51-11,.51-17.49a25.29,25.29,0,0,0-.58-5Q40.85,108.53,41.72,108.53Z"/><path d="M11.9,191.3q.51,0,1.89,3.19a14.77,14.77,0,0,1,1.89,7.26q0,2.54-.58,8.27-.58,7.33-.58,15.24,0,2.83.58,10.16,0,2.9-2.32,2.9-2,0-3.12-4.35a36.38,36.38,0,0,1-.94-6.89,140.79,140.79,0,0,1,1.52-14.29,113.56,113.56,0,0,0,1.38-15.38,28.13,28.13,0,0,0-.65-5.51Q11,191.3,11.9,191.3Zm29.24,25q4.06.07,4.06,2.9a1.46,1.46,0,0,1-1.67,1.52,52,52,0,0,0-5.59.29v10.81a4.84,4.84,0,0,1-.87,3.19,2.48,2.48,0,0,1-2,1q-2,0-6.09-5.73V230a6.12,6.12,0,0,0,3.48,1.45q1.81,0,1.81-1.6v-8.34a50.6,50.6,0,0,0-8.05,2.1,17.39,17.39,0,0,1-2.18.8l.58.29a3.56,3.56,0,0,0,1.6.58q.72,0,2-1.38c.15,0,.22.1.22.29a6,6,0,0,1-.51,2.54,2.61,2.61,0,0,1-2.1,1.52,4,4,0,0,1-3.12-1.89A13.2,13.2,0,0,0,21.48,225a13.47,13.47,0,0,1-2.61.29,5.15,5.15,0,0,1-2.47-.58q-.94-.36-1-.8c0-.34.24-.51.73-.51q3.85,0,11.32-3.41a57.6,57.6,0,0,1,6.82-2.54,3.58,3.58,0,0,0-.73-2.18.8.8,0,0,1-.44-.65q0-.58,1.16-.65a3.34,3.34,0,0,1,3.48,2.68A33.1,33.1,0,0,1,41.14,216.26Zm5.59-31.56A10.81,10.81,0,0,1,54.49,188a10.21,10.21,0,0,1,2.9,7.55,28.22,28.22,0,0,1-.44,4.28,27,27,0,0,0-.51,5.88V232.3a18.37,18.37,0,0,1-2.61,10q-2.32,3.34-4.21,3.34-1,0-2.54-3a16.07,16.07,0,0,1-.65-3.77,12.47,12.47,0,0,1,1.38-3.55,18,18,0,0,0,1.81-7.4V193.7q0-2.76-3-3.92a20.43,20.43,0,0,0-8.34-1.67,31.46,31.46,0,0,0-9.14,2,24.58,24.58,0,0,1-6.24,1.52q-4,0-4-1.67,0-.36,1-.65A117.53,117.53,0,0,1,33.23,186,87.94,87.94,0,0,1,46.73,184.7Zm-8.49,8.71q1.52,0,1.52,1.09,0,1.89-4.79,2.83-.07.8-.15,1.52a38.6,38.6,0,0,1,6.6-1.16q2.61,0,2.61,2.39t-4.28,8.34v.07a.89.89,0,0,1-.36.73,8.31,8.31,0,0,1,2.25,1.38,5.33,5.33,0,0,1,1.89,3.63q0,.94-1.16.94a5.4,5.4,0,0,1-3.48-1.74,7.34,7.34,0,0,1-1.67-2,32.21,32.21,0,0,1-4.14,2.47v.29l-.73.07a29.22,29.22,0,0,1-4.14,1.89,32.53,32.53,0,0,1-6.46,1.89,1.66,1.66,0,0,1-1.38-.87,4.4,4.4,0,0,1-.73-2.32q.07-.94.94-.94a.47.47,0,0,1,.44.29c.15.24.29.36.44.36a12,12,0,0,0,2.18-.36q3.7-.8,7.11-1.74V210q-2,.15-3,.14c0,.82-.22,1.23-.51,1.23A3.1,3.1,0,0,1,25,210.31q-.94-.94-2-4.79a5.91,5.91,0,0,0-1.89-2.32q-.87-.65-.87-1.09t.65-.36a9.58,9.58,0,0,1,2.25.22,5.53,5.53,0,0,1,3.27,2.76.22.22,0,0,1,.07.14,32.27,32.27,0,0,0,4.06-1.23.58.58,0,0,1,.22-.07v-1.38a17.94,17.94,0,0,1-2.39.22q-1.74-.14-2-.94,0-.36,1.45-.65l3-.87v-2a65.18,65.18,0,0,1-6.68.58,3.72,3.72,0,0,1-1.81-.43c-.53-.34-.8-.58-.8-.73q0-.51,1.6-.65a40.41,40.41,0,0,0,7.11-2,1.17,1.17,0,0,1,.51-.15,8.72,8.72,0,0,0-.51-2.18,3.72,3.72,0,0,1-.65-1.31q0-1.52,2.9-1.52a3.65,3.65,0,0,1,2,.73,2.16,2.16,0,0,1,.94,1.89c0,.34,0,.8-.07,1.38Q36.79,193.41,38.24,193.41ZM41.14,236q4.06,0,4.06,2.9a1.46,1.46,0,0,1-1.67,1.52q-7.18,0-13.64.29-3.34.22-5.8.22a4.5,4.5,0,0,1-2.39-.58q-1-.36-1.09-.8c0-.15.19-.22.58-.22a36.77,36.77,0,0,0,9.07-1.67A55.93,55.93,0,0,1,41.14,236ZM30.76,208.35v-2q-2.32.22-3.48.29a7.4,7.4,0,0,1,.58,2.25Q29.39,208.65,30.76,208.35Zm6,2.18a3.07,3.07,0,0,1-.15-.8l-3,.15q-.07.94-.22,1.81Zm-2.25-9c0,.43-.1.85-.15,1.23q.94-.07,1.89-.07,1.38,0,1.38,1.09,0,1.45-3.56,2.1-.15,1-.22,1.81,1.67-.36,2.61-.51l3.26-6.6h-.29Q36.64,201.24,34.54,201.53Z"/><path d="M15.67,277.05q4.57,0,4.57,3.19-.07,2.25-7,7-1.09.8-1.09,1.16t.73.87q5.37,1.89,5.37,6.6t-1.45,7.26q-1.52,2.61-3.27,2.61T9.5,301.94q-.36-.65-.58-1.09.36,4.79.36,12.12v7l3.12-4.14a.69.69,0,0,1,.58-.29c.19,0,.29.22.29.65q-2.25,6.53-3.63,11.1a5,5,0,0,1-1.6,2.83,2.13,2.13,0,0,1-1.45.51q-2.32,0-2.32-3.77a128.2,128.2,0,0,1,1.23-14.15Q6.6,302.59,6.6,297.29a10.68,10.68,0,0,0-.8-4.06c0-.19.27-.29.8-.29s1.16.75,1.6,2.25q.22.94.36,2,2,3,3,3,.36,0,.65-.8a9,9,0,0,0,.51-3.55,7.58,7.58,0,0,0-2.39-5.66A1.45,1.45,0,0,1,9.79,289q0-.94,2.39-4.86a6.44,6.44,0,0,0,1.09-2.47c0-.19-.27-.29-.8-.29q-6,2.9-8.78,2.9a2.7,2.7,0,0,1-2.1-.8,1.6,1.6,0,0,1-.51-1.16q0-.65.94-.65a36.5,36.5,0,0,0,7.62-2.76A12.57,12.57,0,0,1,15.67,277.05Zm32.43-5.59a6.1,6.1,0,0,1,2.76.65q2.1,1.16,2.18,2,0,1.67-2.54,4.14t-4.43,4.21a2.17,2.17,0,0,1,1.16,2q0,.73-1.23,1.45a102.07,102.07,0,0,0-9.8,8.2l-2.47,2.47a24.38,24.38,0,0,0,4.21,2.18A4.21,4.21,0,0,1,40.7,302a13,13,0,0,1,.44,2A47.14,47.14,0,0,0,54,317.17q6.67,4.21,8.71,6.6a8.2,8.2,0,0,1,1.74,2.32q0,.8-2.32.8-6.31,0-12-5.3a48.18,48.18,0,0,1-8.42-11.17v1.09a56.79,56.79,0,0,1-1.89,13.64,23.22,23.22,0,0,1-2.47,6.75,4.28,4.28,0,0,1-2.9,1.38q-1,0-1.89-2.76a33.21,33.21,0,0,1-1.52-5.95.26.26,0,0,1,.29-.29,3.86,3.86,0,0,0,2,.87q1,0,1.52-1.31,2.25-8.05,2.25-12.55v-1.74a113.91,113.91,0,0,1-8.34,14q-2,2.54-3.34,2.54-1.09,0-1.09-1.52A6.58,6.58,0,0,1,25.76,322q5.59-8.49,5.59-14.15a5,5,0,0,0-.07-.8,103.52,103.52,0,0,0-7.62,8.71q-.58.8-.8.8-1.31-.15-1.38-3.19a2.72,2.72,0,0,1,1.31-2,112.67,112.67,0,0,0,8.2-8.63q2-2.1,2.1-3.12a.7.7,0,0,1,.29-.43l-.22-.22a4.93,4.93,0,0,1-.87-.94,27.42,27.42,0,0,1-4.72,4,6.17,6.17,0,0,1-2.1.51.26.26,0,0,1-.29-.29,82.15,82.15,0,0,0,7.76-10.3q-5.08,2.54-7.47,2.54-3.12-.15-3.41-4.14,0-.58.22-.58a8.5,8.5,0,0,0,3.19.58q5,0,12.84-5A22.73,22.73,0,0,1,42.23,283a38.54,38.54,0,0,0,2.68-3.77q2.61-4.21,2.61-6a7.11,7.11,0,0,1-.29-1.23Q47.23,271.54,48.1,271.46Zm-17.05,5q.36,0,1.31,1.6a1.72,1.72,0,0,0,1.31.65,14,14,0,0,0,2.9-.87v.29q-2.25,5.3-4.72,5.3-2.9,0-2.9-2.76a6,6,0,0,1,.8-3Q30.62,276.47,31.05,276.47Zm1.38,29.24.73.44a2.56,2.56,0,0,1,1.09,2.18q0,2-2.39,7.26a2.77,2.77,0,0,0-.22.58q2.54-3.41,5.44-7.69a25.8,25.8,0,0,0-.58-4.79,4.16,4.16,0,0,0-.8-1.6,7.72,7.72,0,0,1-1.09,1.31Q33.45,304.69,32.43,305.71Zm16-12.77a5.94,5.94,0,0,1,2.68.65q2.1,1.16,2.18,2a5.63,5.63,0,0,1-1.45,3q-4.64,5.66-6,5.66-1.16-.07-1.23-.58t.22-.58q.8-.29,2-4.06a17,17,0,0,0,1-4.35,7.13,7.13,0,0,1-.29-1.23Q47.52,293,48.47,292.94Z"/></g></g></svg>